<svg width="63" height="60" viewBox="0 0 63 60" fill="none" xmlns="http://www.w3.org/2000/svg">
<rect width="63" height="60" rx="27" fill="#D7A3B8"/>
<path d="M35.4757 19.5C35.4757 26.9558 14.2022 13.7625 21.4078 33C13.6383 33 7.33981 26.9558 7.33981 19.5C7.33981 12.0442 13.6383 6 21.4078 6C29.1773 6 35.4757 12.0442 35.4757 19.5Z" fill="#FFF8F8"/>
<path d="M49.1314 52.5109C42.5161 56.1823 43.7464 31.5228 30.226 47.1477C26.4001 40.5143 28.6613 32.1605 35.2766 28.4891C41.8918 24.8177 50.356 27.2188 54.1819 33.8523C58.0078 40.4857 55.7466 48.8395 49.1314 52.5109Z" fill="#FFF8F8"/>
<ellipse cx="41.898" cy="9.9" rx="4.58738" ry="3.9" fill="white"/>
<ellipse cx="51.0728" cy="14.1" rx="2.75243" ry="2.7" fill="white"/>
</svg>
