<svg width="90" height="93" viewBox="0 0 90 93" fill="none" xmlns="http://www.w3.org/2000/svg">
<line x1="8.53685" y1="50.5797" x2="73.5368" y2="32.5797" stroke="white"/>
<line x1="9.15397" y1="49.9348" x2="20.154" y2="91.9348" stroke="white"/>
<line x1="19.5456" y1="90.5773" x2="85.5456" y2="73.5773" stroke="white"/>
<line x1="74.1511" y1="31.9242" x2="86.151" y2="73.9242" stroke="white"/>
<line x1="11.5387" y1="60.5791" x2="77.5387" y2="42.5791" stroke="white"/>
<line x1="9.3912" y1="48.6467" x2="64.3912" y2="11.6467" stroke="white"/>
<line x1="9.27561" y1="48.3685" x2="2.27561" y2="39.3685" stroke="white"/>
<line x1="2.38607" y1="39.6502" x2="57.3861" y2="1.65016" stroke="white"/>
<line x1="58.065" y1="1.75455" x2="65.065" y2="10.7546" stroke="white"/>
<line x1="15.1617" y1="31.1537" x2="12.1617" y2="47.1537" stroke="white"/>
<line x1="23.1659" y1="26.1276" x2="21.1659" y2="41.1276" stroke="white"/>
<line x1="32.1694" y1="18.0909" x2="31.1694" y2="35.0909" stroke="white"/>
<line x1="40.1692" y1="14.0948" x2="39.1692" y2="29.0948" stroke="white"/>
<line x1="51.1693" y1="6.09271" x2="50.1693" y2="22.0927" stroke="white"/>
<line x1="59.1692" y1="2.09478" x2="58.1692" y2="17.0948" stroke="white"/>
<line x1="13.9826" y1="49.6711" x2="23.9826" y2="57.6711" stroke="white"/>
<line x1="22.9773" y1="46.6668" x2="31.9773" y2="53.6668" stroke="white"/>
<line x1="35.9826" y1="42.6711" x2="45.9826" y2="50.6711" stroke="white"/>
<line x1="44.9773" y1="40.6668" x2="53.9773" y2="47.6668" stroke="white"/>
<line x1="55.9826" y1="36.6711" x2="65.9826" y2="44.6711" stroke="white"/>
<line x1="64.9644" y1="34.6572" x2="75.9644" y2="42.6572" stroke="white"/>
<path d="M9.38778 50.7492C10.0101 55.1817 10.3101 59.9202 11.6451 64.2332C12.1707 65.9315 12.0429 67.887 12.7513 69.5252C13.1566 70.4624 13.3174 71.5939 13.6931 72.5748C14.2825 74.1139 14.8433 75.6217 15.3674 77.194C16.5328 80.6901 17.0093 84.5888 18.6562 87.8826C19.0705 88.7113 19.1711 90.3857 19.8222 91.0369C20.3116 91.5263 22.3167 90.9429 22.8419 90.708C24.104 90.1433 25.4921 89.8788 26.7735 89.3327C28.1087 88.7636 29.3202 88.123 30.7798 87.8527C34.4215 87.1783 38.0043 86.304 41.6777 85.7897C46.6698 85.0908 51.4456 83.3204 56.2829 82.0226C59.0806 81.272 62.0492 80.4115 64.7366 79.3467C68.7076 77.7733 73.1284 77.3693 77.1667 75.9682C79.4971 75.1597 81.9627 74.6082 84.3572 73.995C84.7662 73.8902 88.2413 73.4828 87.8254 72.8588C86.039 70.1793 84.3336 67.4473 83.4528 64.3155C80.5969 54.1609 79.7384 43.5646 76.0904 33.6027C75.8071 32.829 75.6327 31.6634 74.6403 31.6443C72.9375 31.6116 70.9589 32.3016 69.3633 32.8552C64.4123 34.5729 59.0913 35.7203 54.0405 37.0559C51.0865 37.837 48.1627 38.669 45.1459 39.1861C43.4181 39.4823 41.6439 39.5964 39.9361 40.0009C38.2883 40.3911 36.6504 41.0013 35.0254 41.4808C29.7691 43.0318 24.7908 45.5907 19.6054 47.3857C17.2016 48.2178 14.724 48.9173 12.2954 49.6729C11.4737 49.9285 10.6743 50.3094 9.85119 50.5399C9.57532 50.6172 8.97832 50.4918 8.84961 50.7492" stroke="white" stroke-width="3" stroke-linecap="round"/>
<path d="M63.877 38.2369C63.9061 38.2646 67.8958 42.134 65.8054 40.9427C65.4012 40.7123 63.467 38.6382 64.2059 39.5673C64.9779 40.5383 65.7133 41.605 66.7024 42.3778C67.7797 43.2194 64.7214 40.4897 63.8023 39.4777C63.4819 39.1249 62.9949 38.7151 62.7783 38.2817C62.5489 37.8231 63.5015 39.0092 63.8471 39.388C64.5233 40.1289 65.1569 40.922 65.8652 41.6303C66.5983 42.3634 64.3396 40.226 63.578 39.5225C62.4816 38.5097 61.3033 37.9121 60.0725 37.1157C59.151 36.5194 61.4963 38.824 62.4045 39.4403C63.3935 40.1113 64.4432 40.6716 65.2897 41.5182C66.7456 42.9742 61.9812 39.0663 60.3266 37.8407C59.846 37.4848 58.7644 35.4237 58.7644 36.5626C58.7644 37.5842 59.6979 38.4337 60.4537 39.0292C61.5164 39.8665 62.5426 40.7243 63.578 41.6004C64.603 42.4677 65.65 43.271 66.5379 44.2912C66.8132 44.6075 67.1544 44.964 67.6143 44.964C68.6377 44.964 70.0991 44.1285 71.0376 43.7531C71.9006 43.4079 73.0048 43.1149 73.9377 43.0804C74.6031 43.0557 75.4373 43.0204 74.4236 42.5273C71.9979 41.3472 70.3049 39.4511 68.0179 38.1023C67.2055 37.6232 66.3671 37.2393 65.4467 37.026C64.2479 36.7483 66.1151 38.5531 66.224 38.6854C67.3089 40.0027 68.5622 41.6195 70.193 42.3329C70.5944 42.5085 68.9466 40.2419 68.6308 39.9261C67.5032 38.7985 65.943 37.5952 64.4077 37.0933C63.886 36.9227 61.4402 35.1773 62.8904 36.144C64.1628 36.9923 65.3919 37.8337 66.5379 38.8498C67.1575 39.3991 68.3102 40.0672 68.5561 40.9277C68.7875 41.7378 69.1198 42.1752 69.5277 42.9458C70.2817 44.37 69.1595 43.4733 68.2421 43.2149C67.793 43.0884 66.7 42.3287 66.9266 42.7365C67.363 43.5221 69.095 43.8193 69.8641 43.8876C72.1011 44.0865 74.2818 43.8876 76.5164 43.8876C77.4894 43.8876 75.9346 43.521 75.6643 43.4989C74.2459 43.3832 72.8127 43.5791 71.4188 43.8204C69.1669 44.2101 66.9472 45.0159 64.7366 45.5843C62.8259 46.0756 60.9129 46.6471 59.0335 47.2512C57.4583 47.7575 55.8378 48.1553 54.2498 48.6265C52.4339 49.1653 50.711 49.9201 48.913 50.4801C47.1831 51.019 45.4287 51.456 43.6958 51.9601C42.1288 52.416 40.3985 52.4135 38.8598 53.029C35.6706 54.3047 32.1935 54.7538 28.9486 55.8618C27.0248 56.5187 25.0572 57.1253 23.1708 57.8799C21.0487 58.7287 18.5532 58.9763 16.3391 59.5991C14.8733 60.0113 13.4494 60.5013 12.0039 60.9744C11.5456 61.1243 10.944 61.3513 10.4641 61.378C10.1863 61.3934 12.6316 60.7278 13.1549 60.5408C16.4678 59.3577 19.4195 56.669 23.0587 56.669C24.2715 56.669 25.3012 56.3273 26.4596 55.9963C26.9117 55.8672 24.8238 55.0336 24.576 54.92C21.9552 53.7188 19.7627 51.7127 17.1314 50.5549C16.1164 50.1083 18.5035 52.3004 18.7832 52.5057C20.5351 53.7919 22.4674 54.7618 24.5461 55.376C26.5032 55.9542 23.634 54.2693 23.1558 54.0006C22.1501 53.4356 21.0013 53.1402 20.0315 52.5132C19.251 52.0086 18.5643 51.3706 17.7891 50.8539C17.0082 50.3333 16.4689 49.5244 15.5767 49.2095C14.4196 48.8011 15.3878 50.1953 15.8009 50.6595C17.0529 52.0666 19.4061 52.6901 21.1377 53.2756C21.3222 53.338 24.1806 54.1802 24.1275 53.8885C23.8123 52.1545 18.8635 49.3799 20.4949 50.0466C22.2385 50.7592 23.8119 52.1134 25.3384 53.1934C25.8653 53.5662 27.2339 54.9565 27.9096 54.9798C28.1129 54.9868 27.7257 54.613 27.5957 54.4566C26.9516 53.6815 26.2255 52.9743 25.5028 52.274C24.5337 51.3349 23.5869 50.3545 22.5728 49.4636C22.0264 48.9835 21.4418 48.5653 20.8537 48.1406C20.8517 48.1392 22.4643 49.3544 22.827 49.6505C24.5938 51.0931 26.9296 53.5107 29.3223 53.8885C29.5372 53.9225 28.0807 52.6291 28.0292 52.588C26.899 51.6849 25.6853 50.8916 24.5685 49.9719C23.5658 49.1461 24.6244 49.9045 25.0095 50.1662C25.9538 50.8078 26.9049 51.3999 27.7527 52.1694C28.486 52.835 29.2304 53.9452 30.1744 54.3146C31.2642 54.741 30.1625 54.2027 29.7259 53.8736C28.2662 52.7732 26.5633 51.9356 25.1665 50.7717C24.4987 50.2152 25.728 51.2523 25.9663 51.3173C26.5422 51.4744 25.2738 50.3414 24.875 49.8971C24.136 49.0738 23.4119 48.1836 22.528 47.5053C22.2239 47.2719 22.5259 47.651 22.6625 47.722C23.282 48.0442 23.5882 48.03 22.4383 48.178C21.0146 48.3612 19.5835 48.5808 18.1554 48.7236C17.8834 48.7508 17.6284 48.8065 17.4154 49.0002C16.7229 49.6298 16.0312 51.146 17.5799 50.1961C18.8874 49.3941 20.1369 48.0117 21.5712 47.4455C22.2197 47.1895 24.3078 50.5451 24.7105 50.9735C25.7336 52.0613 27.3553 53.7994 28.971 53.8437C31.5684 53.9148 33.7177 53.4968 36.2138 52.8346C39.6277 51.9289 43.0296 51.0973 46.424 50.084C48.3502 49.509 50.4812 48.392 52.4933 48.2004C53.5743 48.0975 52.7435 47.9184 51.9851 47.5651C50.0477 46.6624 48.0182 45.9538 45.998 45.2629C44.7902 44.8499 41.9462 43.8774 40.5864 43.6484C38.6579 43.3237 39.5477 44.402 40.2501 45.1508C41.6018 46.5918 46.0395 50.3792 44.9964 48.7012C44.2879 47.5614 43.026 46.7142 42.0664 45.8011C41.1778 44.9556 40.3399 44.0601 39.4503 43.2149C37.6704 41.524 42.8753 46.9027 45.101 47.9388C45.3305 48.0456 46.6661 48.6669 46.1774 47.8641C45.3551 46.5132 43.952 45.4163 42.8138 44.351C41.8507 43.4496 40.884 42.5558 39.9511 41.6228C39.1776 40.8494 41.7178 42.9131 42.5896 43.5737C44.0538 44.6832 45.5177 45.7809 47.1042 46.713C47.4864 46.9375 48.4457 47.623 48.345 47.1914C48.108 46.176 46.6863 44.9715 45.998 44.2763C45.1255 43.3951 44.1758 42.5809 43.2174 41.7948C43.0828 41.6843 42.18 40.8159 42.8661 41.5107C44.5263 43.1919 49.2519 48.4247 47.9413 46.4589C46.6231 44.4814 44.4092 43.0745 43.2922 40.9875C43.2669 40.9402 42.8573 40.2594 43.1576 40.5988C44.2222 41.8022 45.5071 42.7775 46.7155 43.8278C47.933 44.886 51.5178 48.0708 50.5499 46.7803C49.3413 45.1688 47.7003 43.891 46.3717 42.3852C45.2539 41.1184 48.9034 44.623 50.1762 45.7338C50.8719 46.341 52.5538 48.3091 52.3887 47.4006C52.294 46.8798 51.3962 46.2138 51.0507 45.8908C50.1839 45.0801 49.2438 44.357 48.3599 43.5662C47.214 42.5409 45.9968 41.4624 44.66 40.6885C43.5493 40.0455 43.7347 40.8375 44.1443 41.6976C45.0985 43.7015 47.1726 45.4223 48.6888 46.9821C49.1829 47.4904 49.9397 48.4804 50.692 48.7311" stroke="white" stroke-width="3" stroke-linecap="round"/>
<path d="M11.0023 60.3017C12.7923 59.8291 14.5846 59.3881 16.384 58.9562" stroke="white" stroke-width="3" stroke-linecap="round"/>
<path d="M3.06435 39.5823C4.87632 42.461 6.59531 44.9819 8.92437 47.3109C9.57066 47.9572 9.71914 47.5722 10.4716 47.1091C12.169 46.0645 13.7532 44.8591 15.4123 43.7531C18.8364 41.4703 22.5247 39.5393 26.1457 37.5642C32.2751 34.2208 38.2196 30.2786 43.8304 26.1282C45.7886 24.6796 47.8837 23.1911 49.9445 21.8976C52.0362 20.5848 54.2394 19.3098 56.2754 17.9137C57.9615 16.7575 59.8106 15.7462 61.4553 14.5501C62.3543 13.8963 64.2169 12.9705 64.6544 11.8967C64.9366 11.2039 65.1455 10.9548 64.9235 10.1775C64.5658 8.92567 62.8075 7.64761 61.8739 6.814C60.8809 5.92742 60.1594 4.75211 59.1158 3.86904C58.5478 3.38843 57.5726 2.67369 57.1799 2.04526C56.8973 1.59311 54.1716 4.67046 53.7565 4.97527C51.6687 6.50854 49.3498 7.71262 47.2088 9.16847C45.098 10.6038 42.8836 11.8049 40.7882 13.2869C38.3649 15.001 35.7795 16.4566 33.381 18.1902C30.7623 20.083 27.8281 21.5651 25.159 23.4074C22.3372 25.3552 19.3631 27.0679 16.5334 29.0133C13.9105 30.8166 11.5157 32.9074 8.90942 34.7388C7.92559 35.4301 6.9935 36.1863 6.01679 36.884C5.23283 37.444 4.60563 38.166 3.8118 38.7003C3.46727 38.9322 1.81038 39.9936 2.01792 40.554C2.35249 41.4573 3.94585 42.1922 4.64895 42.7515C5.87372 43.7257 7.18802 44.6477 8.29651 45.7562C9.31607 46.7758 9.25336 47.4521 9.05891 48.8133C8.90007 49.9252 9.01791 51.0112 9.32052 52.0872C9.47837 52.6484 9.57422 53.9226 9.95585 54.3519C10.4924 54.9556 10.0857 52.7359 10.0306 51.9302C9.95027 50.7554 9.58471 49.3847 9.76152 48.2228C9.8675 47.5264 9.84867 47.7893 10.4641 47.7893C11.393 47.7893 12.378 45.8841 12.8036 45.2405C14.4223 42.7927 15.4991 40.6735 16.2494 37.8183C16.6882 36.1483 17.0281 34.4124 17.2958 32.7057C17.579 30.9006 16.0959 36.1746 15.786 37.9753C15.6022 39.0432 15.5566 40.1572 15.3076 41.2117C15.1574 41.8477 15.1251 39.9143 15.1133 39.2609C15.0745 37.118 15.1368 34.8977 15.3151 32.7581C15.4459 31.1881 15.379 35.9211 15.1656 37.4819C15.0075 38.6381 14.7827 39.7868 14.7694 40.9576C14.7653 41.3251 15.4133 38.4803 15.5169 38.0575C16.3233 34.7656 17.6711 31.6024 18.8505 28.4303C19.7072 26.1261 18.4767 33.3361 18.133 35.7703C18.0974 36.0225 17.4063 39.9208 17.7294 37.9827C18.3014 34.5506 21.2257 24.5231 20.5921 27.9445C19.9647 31.3323 19.9327 34.7763 19.5531 38.192C19.5045 38.6297 19.4752 39.0851 19.4485 38.3116C19.379 36.2979 19.5947 34.2638 19.9717 32.2872C20.3017 30.5574 20.8259 28.8816 21.3022 27.1895C21.3593 26.9866 21.5191 25.9153 21.489 26.7859C21.3755 30.0791 21.0809 33.5221 20.2109 36.7121C19.4906 39.3531 20.8929 31.2489 21.7207 28.6396C21.9922 27.7841 22.2419 26.767 22.6924 25.9787C23.011 25.4211 22.5409 27.2541 22.4682 27.8921C22.0934 31.1819 21.7542 34.6125 20.764 37.7884C20.604 38.3016 20.4079 39.2505 19.9568 39.6197C19.8877 39.6762 19.6116 35.6306 19.6279 35.2097C19.6391 34.9203 19.992 32.1094 19.5681 33.9465C19.1778 35.6377 18.7479 37.3192 18.3423 39.0067C18.2774 39.2767 18.1172 40.8042 17.834 41.0024C17.7259 41.0781 17.7652 40.7456 17.7592 40.6138C17.7216 39.7851 17.7747 38.9449 17.8938 38.1248C17.9211 37.9364 18.2879 35.4693 18.5665 35.4414C18.6647 35.4316 18.2208 38.8607 18.1853 39.0516C17.9981 40.057 17.7866 41.3262 17.251 42.2283C16.7685 43.0408 17.4694 40.3315 17.8041 39.4477C18.5441 37.4942 17.9852 40.9513 17.8639 41.4509C17.6248 42.4352 19.8885 39.8555 20.1212 39.6421C22.6615 37.3117 25.5509 35.5918 28.5599 33.9988C29.9191 33.2793 31.1424 32.3683 32.1925 31.2482C32.9601 30.4295 34.1681 29.8024 34.7189 28.7966C35.1433 28.0215 34.954 26.8579 34.9207 26.0235C34.8459 24.1447 34.6466 22.2759 34.4947 20.4027C34.4572 19.94 34.4125 18.5482 34.4125 19.0124C34.4125 20.8186 34.3641 22.6198 34.2779 24.424C34.2035 25.9832 34.4354 30.5789 33.9491 29.0955C33.1245 26.5806 32.8635 23.6178 32.6933 20.9857C32.6668 20.5751 32.6484 19.3526 32.7457 19.7524C33.1982 21.6129 33.1892 23.6754 33.3062 25.575C33.4103 27.2633 33.4707 28.9515 33.4707 30.6428C33.4707 30.6627 33.4707 30.7225 33.4707 30.7026C33.4707 29.7207 33.4808 28.7384 33.5305 27.7576C33.6509 25.3814 33.978 23.0814 34.5993 20.7839C34.7758 20.1313 34.5739 18.884 35.2496 18.8629C35.8187 18.8451 35.5139 19.9764 35.5486 20.5447C35.7133 23.2402 35.6699 25.9421 35.7579 28.6396C35.8233 30.6444 36.3375 24.6689 36.7072 22.6974C36.9225 21.549 37.2337 19.9696 37.5069 18.7807C37.5398 18.6378 37.7884 17.2455 37.9404 18.265C38.302 20.6888 38.1867 23.2249 38.1124 25.6647C38.1055 25.8897 37.9921 29.046 38.075 26.9503C38.1799 24.2989 38.4184 21.6713 38.7776 19.0423C38.9009 18.1397 39.194 15.4426 39.256 16.3515C39.3733 18.073 39.3848 19.8141 39.3905 21.5388C39.3949 22.8655 39.4849 24.2358 39.383 25.5601C39.2877 26.799 39.1812 23.0804 39.1812 21.8378C39.1812 20.0202 39.2494 18.1817 39.4503 16.3739C39.462 16.2685 39.5114 15.9543 39.5026 16.06C39.4409 16.8009 39.3158 17.5427 39.2261 18.2799C38.7812 21.9344 38.5142 25.6241 37.776 29.2376C37.3527 31.3096 37.2009 27.1254 37.2378 26.7336C37.3319 25.7363 37.5066 25.0648 37.0585 26.4421C36.5698 27.9439 36.0106 29.4212 35.5112 30.9193C34.7678 33.1497 35.5663 31.7745 36.468 30.8147C38.7583 28.3766 41.2649 25.7294 44.1742 24.0054C45.9837 22.9331 47.733 21.6173 49.6605 20.7764C51.1051 20.1462 52.6673 19.336 53.7565 18.1603C55.2657 16.5313 54.2768 12.8631 54.2199 10.925C54.1799 9.56012 54.19 8.19422 54.19 6.82895C54.19 5.43852 53.9747 9.60177 53.8313 10.9848C53.5549 13.6488 53.301 16.333 52.9044 18.9825C52.8666 19.2355 52.8364 19.3802 52.7848 19.0274C52.6233 17.9223 52.5741 16.7845 52.5232 15.6713C52.4255 13.5318 52.4775 11.4043 52.5457 9.26564C52.565 8.66008 52.7077 6.74174 52.2915 8.51072C51.5645 11.6007 51.922 21.1878 51.7459 18.0183C51.6082 15.5397 51.4822 13.0826 51.559 10.5961C51.5988 9.30733 51.6875 8.01991 51.8954 6.74673C51.9469 6.43089 52.0112 5.55062 52.1719 5.82737C52.833 6.96593 52.1836 9.78038 52.0972 10.9549C51.9902 12.4091 51.5346 14.2874 51.873 15.7535C52.1485 16.9477 52.5639 13.4016 52.882 12.2181C53.4455 10.122 54.2588 8.14717 55.072 6.14129C55.1207 6.0213 55.5183 4.49988 55.8195 5.10234C56.5066 6.47646 56.4667 8.40387 56.552 9.8935C56.6347 11.3392 56.6118 12.7889 56.6118 14.2362C56.6118 14.3284 56.6026 14.421 56.6118 14.5128C56.6362 14.7565 56.6539 14.0246 56.6716 13.7803C56.766 12.4747 56.8427 11.1671 56.9631 9.8636C57.1411 7.93727 57.4004 6.00653 57.6881 4.09328C57.7081 3.9606 57.7377 3.58225 57.7928 3.7046C57.9432 4.03888 57.8192 5.01646 57.8152 5.2892C57.7713 8.27696 57.77 17.1518 57.15 14.2287C56.515 11.2355 57.15 8.0685 57.15 5.04254C57.15 1.33019 56.9149 12.4921 56.2381 16.1422C55.6862 19.1186 55.2664 10.1401 55.2664 7.11298C55.2664 6.96086 55.3179 4.78028 55.4682 6.28331C55.7511 9.11225 55.6748 12.0377 55.3337 14.8566C55.2209 15.788 55.1393 17.5147 54.5189 15.6937C54.1931 14.7372 53.8919 13.6159 53.6668 12.6441C53.4533 11.7221 53.1716 8.91062 53.1287 9.85613C53.1037 10.4061 53.2814 15.7073 52.1719 14.154" stroke="white" stroke-width="3" stroke-linecap="round"/>
<path d="M45.8485 66.4905C46.2058 63.9056 46.9737 61.8985 49.8175 62.3198C51.8721 62.6242 52.3381 64.6482 52.3065 66.356C52.2701 68.3239 50.5735 70.4194 49.4139 71.8797C48.6611 72.8276 47.463 74.2074 47.463 75.5048" stroke="white" stroke-width="3" stroke-linecap="round"/>
<path d="M45.983 68.3741C44.753 66.3795 43.7691 64.8108 41.5432 64.0688C40.5623 63.7419 39.2474 63.6075 38.2619 64.009C36.1249 64.8797 36.489 67.2052 37.4546 68.8525C38.5255 70.6792 40.7177 72.1907 42.5149 73.2176C43.5923 73.8333 46.7526 74.3155 47.1939 75.6394" stroke="white" stroke-width="3" stroke-linecap="round"/>
</svg>
