<svg width="90" height="93" viewBox="0 0 90 93" fill="none" xmlns="http://www.w3.org/2000/svg">
<line x1="8.86656" y1="50.5181" x2="73.8666" y2="32.5181" stroke="#FBC740"/>
<line x1="9.48369" y1="49.8733" x2="20.4837" y2="91.8733" stroke="#FBC740"/>
<line x1="19.8753" y1="90.5158" x2="85.8753" y2="73.5158" stroke="#FBC740"/>
<line x1="74.4808" y1="31.8626" x2="86.4808" y2="73.8626" stroke="#FBC740"/>
<line x1="11.8684" y1="60.5176" x2="77.8684" y2="42.5176" stroke="#FBC740"/>
<line x1="9.72091" y1="48.5851" x2="64.7209" y2="11.5851" stroke="#FBC740"/>
<line x1="9.60532" y1="48.307" x2="2.60532" y2="39.307" stroke="#FBC740"/>
<line x1="2.71578" y1="39.5886" x2="57.7158" y2="1.58864" stroke="#FBC740"/>
<line x1="58.3947" y1="1.69303" x2="65.3947" y2="10.693" stroke="#FBC740"/>
<line x1="15.4914" y1="31.0921" x2="12.4914" y2="47.0921" stroke="#FBC740"/>
<line x1="23.4956" y1="26.0661" x2="21.4956" y2="41.0661" stroke="#FBC740"/>
<line x1="32.4991" y1="18.0294" x2="31.4991" y2="35.0294" stroke="#FBC740"/>
<line x1="40.4989" y1="14.0333" x2="39.4989" y2="29.0333" stroke="#FBC740"/>
<line x1="51.499" y1="6.03119" x2="50.499" y2="22.0312" stroke="#FBC740"/>
<line x1="59.4989" y1="2.03326" x2="58.4989" y2="17.0333" stroke="#FBC740"/>
<line x1="14.3123" y1="49.6096" x2="24.3123" y2="57.6096" stroke="#FBC740"/>
<line x1="23.307" y1="46.6053" x2="32.307" y2="53.6053" stroke="#FBC740"/>
<line x1="36.3123" y1="42.6096" x2="46.3123" y2="50.6096" stroke="#FBC740"/>
<line x1="45.307" y1="40.6053" x2="54.307" y2="47.6053" stroke="#FBC740"/>
<line x1="56.3123" y1="36.6096" x2="66.3123" y2="44.6096" stroke="#FBC740"/>
<line x1="65.2941" y1="34.5956" x2="76.2941" y2="42.5956" stroke="#FBC740"/>
<path d="M9.71749 50.6877C10.3398 55.1202 10.6398 59.8586 11.9748 64.1717C12.5004 65.87 12.3726 67.8255 13.081 69.4637C13.4863 70.4009 13.6472 71.5324 14.0228 72.5133C14.6122 74.0523 15.173 75.5602 15.6971 77.1325C16.8625 80.6286 17.339 84.5273 18.9859 87.8211C19.4002 88.6498 19.5008 90.3242 20.1519 90.9753C20.6413 91.4648 22.6464 90.8814 23.1716 90.6465C24.4338 90.0818 25.8219 89.8173 27.1032 89.2711C28.4384 88.7021 29.65 88.0615 31.1096 87.7912C34.7512 87.1168 38.334 86.2425 42.0074 85.7282C46.9995 85.0293 51.7753 83.2589 56.6126 81.9611C59.4103 81.2105 62.3789 80.35 65.0663 79.2852C69.0373 77.7118 73.4581 77.3077 77.4964 75.9067C79.8268 75.0982 82.2924 74.5466 84.6869 73.9334C85.0959 73.8287 88.571 73.4212 88.1551 72.7973C86.3687 70.1178 84.6633 67.3858 83.7825 64.2539C80.9266 54.0994 80.0681 43.5031 76.4201 33.5411C76.1368 32.7675 75.9624 31.6019 74.97 31.5828C73.2672 31.5501 71.2887 32.2401 69.693 32.7937C64.742 34.5114 59.421 35.6588 54.3703 36.9944C51.4162 37.7755 48.4924 38.6074 45.4756 39.1246C43.7478 39.4208 41.9736 39.5349 40.2658 39.9393C38.618 40.3296 36.9801 40.9398 35.3551 41.4193C30.0988 42.9703 25.1206 45.5292 19.9352 47.3241C17.5313 48.1563 15.0538 48.8558 12.6251 49.6114C11.8034 49.867 11.004 50.2479 10.1809 50.4784C9.90504 50.5556 9.30803 50.4303 9.17932 50.6877" stroke="#FBC740" stroke-width="3" stroke-linecap="round"/>
<path d="M64.2067 38.1754C64.2358 38.2031 68.2256 42.0724 66.1351 40.8811C65.7309 40.6507 63.7967 38.5767 64.5356 39.5058C65.3077 40.4767 66.043 41.5435 67.0321 42.3162C68.1094 43.1579 65.0511 40.4282 64.132 39.4161C63.8116 39.0634 63.3247 38.6536 63.108 38.2202C62.8787 37.7616 63.8312 38.9477 64.1768 39.3264C64.853 40.0674 65.4866 40.8605 66.1949 41.5688C66.9281 42.3019 64.6693 40.1645 63.9077 39.461C62.8113 38.4482 61.633 37.8506 60.4022 37.0542C59.4807 36.4579 61.826 38.7625 62.7342 39.3788C63.7232 40.0498 64.7729 40.6101 65.6194 41.4567C67.0753 42.9126 62.3109 39.0048 60.6563 37.7792C60.1758 37.4232 59.0942 35.3622 59.0942 36.5011C59.0942 37.5227 60.0276 38.3722 60.7834 38.9677C61.8462 39.805 62.8723 40.6628 63.9077 41.5389C64.9327 42.4062 65.9797 43.2095 66.8676 44.2297C67.1429 44.546 67.4841 44.9024 67.944 44.9024C68.9675 44.9024 70.4288 44.067 71.3673 43.6916C72.2304 43.3463 73.3346 43.0534 74.2674 43.0188C74.9328 42.9942 75.767 42.9589 74.7533 42.4657C72.3276 41.2857 70.6346 39.3896 68.3476 38.0408C67.5352 37.5617 66.6968 37.1778 65.7764 36.9645C64.5776 36.6867 66.4448 38.4916 66.5537 38.6238C67.6386 39.9411 68.8919 41.5579 70.5227 42.2714C70.9241 42.447 69.2763 40.1804 68.9605 39.8646C67.8329 38.737 66.2727 37.5337 64.7374 37.0318C64.2157 36.8612 61.77 35.1157 63.2201 36.0825C64.4925 36.9308 65.7216 37.7722 66.8676 38.7883C67.4872 39.3376 68.6399 40.0057 68.8858 40.8662C69.1172 41.6762 69.4495 42.1137 69.8575 42.8843C70.6114 44.3084 69.4892 43.4118 68.5718 43.1534C68.1227 43.0269 67.0297 42.2671 67.2563 42.675C67.6927 43.4606 69.4247 43.7577 70.1938 43.8261C72.4308 44.0249 74.6115 43.8261 76.8461 43.8261C77.8191 43.8261 76.2643 43.4595 75.994 43.4374C74.5756 43.3216 73.1425 43.5176 71.7485 43.7588C69.4966 44.1486 67.2769 44.9544 65.0663 45.5228C63.1556 46.0141 61.2426 46.5856 59.3632 47.1896C57.788 47.6959 56.1675 48.0938 54.5795 48.5649C52.7636 49.1037 51.0407 49.8586 49.2427 50.4186C47.5128 50.9575 45.7584 51.3945 44.0255 51.8986C42.4585 52.3544 40.7282 52.352 39.1895 52.9674C36.0003 54.2431 32.5233 54.6922 29.2783 55.8003C27.3545 56.4572 25.3869 57.0638 23.5005 57.8184C21.3784 58.6672 18.8829 58.9148 16.6688 59.5375C15.203 59.9498 13.7791 60.4398 12.3336 60.9128C11.8753 61.0628 11.2737 61.2898 10.7938 61.3165C10.5161 61.3319 12.9613 60.6662 13.4846 60.4793C16.7976 59.2961 19.7492 56.6075 23.3884 56.6075C24.6012 56.6075 25.6309 56.2658 26.7893 55.9348C27.2415 55.8056 25.1535 54.9721 24.9057 54.8585C22.2849 53.6573 20.0924 51.6512 17.4611 50.4934C16.4461 50.0468 18.8332 52.2388 19.113 52.4442C20.8648 53.7304 22.7971 54.7003 24.8758 55.3144C26.8329 55.8927 23.9637 54.2078 23.4856 53.9391C22.4799 53.3741 21.331 53.0787 20.3612 52.4517C19.5807 51.9471 18.894 51.3091 18.1188 50.7923C17.3379 50.2717 16.7987 49.4629 15.9064 49.148C14.7493 48.7396 15.7175 50.1337 16.1306 50.598C17.3826 52.0051 19.7358 52.6286 21.4674 53.2141C21.6519 53.2765 24.5103 54.1187 24.4572 53.827C24.142 52.093 19.1932 49.3183 20.8246 49.9851C22.5682 50.6977 24.1417 52.0518 25.6681 53.1319C26.195 53.5046 27.5636 54.895 28.2393 54.9183C28.4426 54.9253 28.0554 54.5515 27.9254 54.3951C27.2814 53.62 26.5552 52.9128 25.8326 52.2125C24.8634 51.2733 23.9166 50.293 22.9025 49.4021C22.3561 48.922 21.7715 48.5038 21.1834 48.0791C21.1814 48.0777 22.794 49.2928 23.1567 49.589C24.9235 51.0316 27.2593 53.4492 29.652 53.827C29.8669 53.8609 28.4104 52.5676 28.3589 52.5264C27.2287 51.6233 26.015 50.83 24.8982 49.9104C23.8955 49.0846 24.9541 49.843 25.3392 50.1047C26.2835 50.7463 27.2346 51.3384 28.0824 52.1079C28.8157 52.7735 29.5601 53.8837 30.5041 54.2531C31.594 54.6795 30.4922 54.1411 30.0557 53.8121C28.596 52.7117 26.893 51.8741 25.4962 50.7101C24.8285 50.1537 26.0577 51.1908 26.296 51.2558C26.8719 51.4129 25.6035 50.2799 25.2047 49.8356C24.4657 49.0123 23.7416 48.1221 22.8577 47.4438C22.5536 47.2104 22.8556 47.5895 22.9922 47.6605C23.6117 47.9826 23.9179 47.9685 22.768 48.1165C21.3443 48.2997 19.9132 48.5193 18.4851 48.6621C18.2131 48.6893 17.9581 48.745 17.7451 48.9387C17.0526 49.5682 16.3609 51.0844 17.9096 50.1346C19.2171 49.3326 20.4666 47.9502 21.901 47.384C22.5495 47.128 24.6375 50.4836 25.0403 50.9119C26.0633 51.9998 27.6851 53.7379 29.3007 53.7822C31.8981 53.8533 34.0474 53.4353 36.5435 52.7731C39.9574 51.8674 43.3593 51.0357 46.7537 50.0225C48.6799 49.4475 50.8109 48.3305 52.823 48.1389C53.9041 48.0359 53.0732 47.8569 52.3148 47.5036C50.3774 46.6009 48.348 45.8923 46.3277 45.2014C45.1199 44.7884 42.2759 43.8159 40.9161 43.5869C38.9876 43.2622 39.8774 44.3405 40.5798 45.0893C41.9315 46.5303 46.3692 50.3177 45.3261 48.6397C44.6176 47.4999 43.3557 46.6527 42.3961 45.7396C41.5075 44.8941 40.6696 43.9985 39.78 43.1534C38.0001 41.4625 43.205 46.8412 45.4307 47.8773C45.6602 47.9841 46.9958 48.6054 46.5071 47.8025C45.6848 46.4516 44.2818 45.3548 43.1435 44.2895C42.1804 43.3881 41.2138 42.4943 40.2808 41.5613C39.5074 40.7879 42.0475 42.8516 42.9193 43.5122C44.3835 44.6217 45.8474 45.7194 47.4339 46.6515C47.8161 46.876 48.7754 47.5615 48.6747 47.1298C48.4378 46.1145 47.016 44.9099 46.3277 44.2148C45.4552 43.3336 44.5056 42.5193 43.5472 41.7332C43.4125 41.6228 42.5097 40.7543 43.1959 41.4492C44.856 43.1304 49.5816 48.3632 48.2711 46.3973C46.9528 44.4199 44.7389 43.013 43.6219 40.926C43.5966 40.8787 43.1871 40.1978 43.4874 40.5373C44.5519 41.7407 45.8368 42.716 47.0452 43.7663C48.2628 44.8245 51.8475 48.0092 50.8797 46.7187C49.671 45.1072 48.03 43.8295 46.7014 42.3237C45.5836 41.0569 49.2331 44.5614 50.5059 45.6723C51.2016 46.2794 52.8836 48.2476 52.7184 47.3391C52.6237 46.8183 51.7259 46.1523 51.3805 45.8293C50.5136 45.0185 49.5735 44.2955 48.6896 43.5047C47.5437 42.4794 46.3265 41.4009 44.9897 40.627C43.879 39.984 44.0644 40.7759 44.474 41.6361C45.4282 43.6399 47.5023 45.3607 49.0185 46.9205C49.5126 47.4289 50.2694 48.4188 51.0217 48.6696" stroke="#FBC740" stroke-width="3" stroke-linecap="round"/>
<path d="M11.332 60.2401C13.122 59.7676 14.9143 59.3266 16.7137 58.8947" stroke="#FBC740" stroke-width="3" stroke-linecap="round"/>
<path d="M3.39406 39.5208C5.20603 42.3995 6.92502 44.9204 9.25408 47.2494C9.90037 47.8957 10.0489 47.5106 10.8013 47.0476C12.4988 46.003 14.0829 44.7976 15.742 43.6915C19.1661 41.4088 22.8544 39.4777 26.4754 37.5026C32.6048 34.1593 38.5493 30.2171 44.1601 26.0666C46.1183 24.6181 48.2134 23.1296 50.2742 21.8361C52.3659 20.5232 54.5691 19.2483 56.6051 17.8521C58.2913 16.6959 60.1403 15.6847 61.785 14.4886C62.684 13.8348 64.5466 12.909 64.9841 11.8351C65.2663 11.1423 65.4752 10.8932 65.2532 10.116C64.8955 8.86415 63.1372 7.58608 62.2036 6.75248C61.2106 5.8659 60.4891 4.69059 59.4455 3.80752C58.8775 3.32691 57.9023 2.61216 57.5096 1.98374C57.227 1.53158 54.5013 4.60894 54.0862 4.91375C51.9984 6.44702 49.6795 7.6511 47.5386 9.10695C45.4277 10.5423 43.2133 11.7433 41.118 13.2254C38.6946 14.9395 36.1092 16.3951 33.7107 18.1287C31.092 20.0214 28.1578 21.5036 25.4887 23.3459C22.6669 25.2937 19.6928 27.0064 16.8631 28.9518C14.2402 30.7551 11.8454 32.8458 9.23913 34.6773C8.2553 35.3686 7.32321 36.1248 6.3465 36.8225C5.56254 37.3824 4.93534 38.1045 4.14152 38.6388C3.79698 38.8707 2.14009 39.9321 2.34763 40.4924C2.6822 41.3958 4.27556 42.1307 4.97866 42.69C6.20343 43.6642 7.51773 44.5862 8.62622 45.6947C9.64578 46.7143 9.58308 47.3906 9.38863 48.7518C9.22979 49.8637 9.34762 50.9497 9.65023 52.0256C9.80808 52.5869 9.90393 53.8611 10.2856 54.2904C10.8221 54.8941 10.4154 52.6744 10.3603 51.8687C10.28 50.6939 9.91442 49.3232 10.0912 48.1613C10.1972 47.4649 10.1784 47.7278 10.7938 47.7278C11.7228 47.7278 12.7078 45.8226 13.1334 45.179C14.752 42.7312 15.8288 40.612 16.5791 37.7568C17.018 36.0867 17.3578 34.3509 17.6255 32.6442C17.9087 30.8391 16.4256 36.113 16.1157 37.9137C15.9319 38.9816 15.8863 40.0956 15.6373 41.1502C15.4871 41.7862 15.4548 39.8528 15.443 39.1994C15.4043 37.0565 15.4665 34.8362 15.6448 32.6965C15.7756 31.1266 15.7088 35.8595 15.4953 37.4204C15.3372 38.5766 15.1125 39.7253 15.0992 40.8961C15.095 41.2636 15.743 38.4188 15.8466 37.996C16.653 34.704 18.0009 31.5409 19.1802 28.3688C20.0369 26.0646 18.8064 33.2746 18.4627 35.7088C18.4271 35.961 17.7361 39.8592 18.0591 37.9212C18.6311 34.4891 21.5554 24.4616 20.9218 27.8829C20.2944 31.2708 20.2624 34.7147 19.8828 38.1305C19.8342 38.5682 19.8049 39.0236 19.7782 38.2501C19.7088 36.2363 19.9244 34.2023 20.3014 32.2256C20.6314 30.4958 21.1556 28.8201 21.6319 27.128C21.689 26.925 21.8488 25.8537 21.8187 26.7244C21.7052 30.0176 21.4106 33.4606 20.5406 36.6505C19.8203 39.2916 21.2226 31.1874 22.0505 28.5781C22.3219 27.7226 22.5716 26.7055 23.0221 25.9171C23.3408 25.3596 22.8706 27.1926 22.7979 27.8306C22.4231 31.1204 22.0839 34.5509 21.0937 37.7269C20.9337 38.24 20.7376 39.189 20.2865 39.5581C20.2174 39.6146 19.9413 35.569 19.9576 35.1482C19.9688 34.8587 20.3217 32.0478 19.8978 33.885C19.5075 35.5762 19.0776 37.2577 18.672 38.9452C18.6071 39.2152 18.4469 40.7427 18.1637 40.9409C18.0556 41.0166 18.095 40.684 18.089 40.5522C18.0513 39.7235 18.1044 38.8834 18.2235 38.0632C18.2508 37.8749 18.6176 35.4077 18.8962 35.3799C18.9944 35.3701 18.5506 38.7992 18.515 38.9901C18.3278 39.9954 18.1163 41.2647 17.5807 42.1667C17.0982 42.9793 17.7991 40.2699 18.1338 39.3862C18.8738 37.4327 18.315 40.8897 18.1936 41.3894C17.9546 42.3737 20.2183 39.794 20.4509 39.5806C22.9912 37.2502 25.8806 35.5303 28.8896 33.9373C30.2488 33.2178 31.4721 32.3068 32.5223 31.1867C33.2898 30.368 34.4978 29.7409 35.0486 28.735C35.4731 27.96 35.2837 26.7963 35.2505 25.962C35.1756 24.0832 34.9763 22.2144 34.8244 20.3412C34.7869 19.8784 34.7422 18.4867 34.7422 18.9509C34.7422 20.757 34.6938 22.5582 34.6076 24.3624C34.5332 25.9217 34.7651 30.5174 34.2788 29.034C33.4542 26.5191 33.1932 23.5563 33.023 20.9242C32.9965 20.5136 32.9781 19.2911 33.0754 19.6909C33.5279 21.5514 33.5189 23.6138 33.636 25.5135C33.74 27.2017 33.8004 28.8899 33.8004 30.5812C33.8004 30.6012 33.8004 30.661 33.8004 30.641C33.8004 29.6592 33.8105 28.6769 33.8602 27.6961C33.9806 25.3199 34.3077 23.0199 34.929 20.7224C35.1055 20.0698 34.9036 18.8225 35.5793 18.8014C36.1484 18.7836 35.8436 19.9148 35.8783 20.4832C36.043 23.1787 35.9996 25.8805 36.0876 28.5781C36.153 30.5829 36.6672 24.6073 37.0369 22.6358C37.2522 21.4874 37.5634 19.908 37.8366 18.7192C37.8695 18.5763 38.1181 17.184 38.2702 18.2034C38.6317 20.6273 38.5165 23.1634 38.4421 25.6032C38.4352 25.8281 38.3218 28.9844 38.4047 26.8888C38.5096 24.2374 38.7482 21.6098 39.1073 18.9808C39.2306 18.0782 39.5237 15.3811 39.5857 16.29C39.703 18.0114 39.7145 19.7526 39.7202 21.4773C39.7246 22.8039 39.8146 24.1743 39.7127 25.4986C39.6174 26.7375 39.5109 23.0189 39.5109 21.7763C39.5109 19.9587 39.5792 18.1201 39.78 16.3124C39.7917 16.2069 39.8411 15.8927 39.8323 15.9985C39.7706 16.7394 39.6455 17.4812 39.5558 18.2184C39.1109 21.8729 38.8439 25.5626 38.1057 29.176C37.6824 31.2481 37.5306 27.0639 37.5676 26.6721C37.6616 25.6748 37.8363 25.0033 37.3882 26.3806C36.8995 27.8824 36.3403 29.3597 35.8409 30.8578C35.0975 33.0881 35.896 31.713 36.7977 30.7532C39.088 28.3151 41.5946 25.6679 44.5039 23.9439C46.3134 22.8716 48.0627 21.5557 49.9902 20.7149C51.4348 20.0847 52.997 19.2744 54.0862 18.0988C55.5955 16.4698 54.6065 12.8016 54.5497 10.8635C54.5096 9.4986 54.5198 8.1327 54.5198 6.76743C54.5198 5.377 54.3044 9.54025 54.161 10.9233C53.8846 13.5872 53.6307 16.2715 53.2341 18.921C53.1963 19.174 53.1661 19.3186 53.1145 18.9658C52.953 17.8608 52.9038 16.723 52.8529 15.6098C52.7552 13.4703 52.8072 11.3427 52.8754 9.20412C52.8947 8.59856 53.0375 6.68022 52.6212 8.44919C51.8942 11.5392 52.2517 21.1263 52.0756 17.9568C51.9379 15.4782 51.8119 13.0211 51.8887 10.5346C51.9285 9.24581 52.0172 7.95839 52.2251 6.68521C52.2766 6.36937 52.3409 5.48909 52.5016 5.76584C53.1628 6.9044 52.5133 9.71886 52.4269 10.8934C52.3199 12.3475 51.8643 14.2258 52.2027 15.692C52.4782 16.8862 52.8936 13.3401 53.2117 12.1566C53.7752 10.0605 54.5886 8.08564 55.4018 6.07977C55.4504 5.95978 55.848 4.43836 56.1492 5.04081C56.8363 6.41494 56.7965 8.34235 56.8817 9.83198C56.9644 11.2777 56.9415 12.7274 56.9415 14.1747C56.9415 14.2669 56.9323 14.3595 56.9415 14.4512C56.9659 14.695 56.9836 13.9631 57.0013 13.7187C57.0957 12.4132 57.1724 11.1056 57.2928 9.80208C57.4708 7.87575 57.7301 5.945 58.0178 4.03176C58.0378 3.89908 58.0674 3.52073 58.1225 3.64308C58.2729 3.97735 58.1489 4.95493 58.1449 5.22768C58.101 8.21543 58.0997 17.0902 57.4797 14.1672C56.8447 11.174 57.4797 8.00698 57.4797 4.98102C57.4797 1.26867 57.2446 12.4305 56.5678 16.0807C56.0159 19.0571 55.5961 10.0786 55.5961 7.05146C55.5961 6.89934 55.6476 4.71875 55.7979 6.22179C56.0808 9.05072 56.0045 11.9762 55.6634 14.7951C55.5506 15.7265 55.469 17.4532 54.8486 15.6322C54.5228 14.6757 54.2216 13.5544 53.9965 12.5826C53.783 11.6605 53.5014 8.84909 53.4584 9.79461C53.4334 10.3446 53.6111 15.6457 52.5016 14.0925" stroke="#FBC740" stroke-width="3" stroke-linecap="round"/>
<path d="M46.1782 66.429C46.5355 63.8441 47.3035 61.8369 50.1472 62.2582C52.2019 62.5626 52.6678 64.5867 52.6362 66.2945C52.5998 68.2624 50.9032 70.3578 49.7436 71.8181C48.9908 72.766 47.7927 74.1459 47.7927 75.4433" stroke="#FBC740" stroke-width="3" stroke-linecap="round"/>
<path d="M46.3127 68.3126C45.0827 66.318 44.0988 64.7492 41.8729 64.0073C40.892 63.6803 39.5771 63.546 38.5916 63.9475C36.4546 64.8181 36.8187 67.1437 37.7843 68.791C38.8552 70.6177 41.0474 72.1292 42.8446 73.1561C43.922 73.7718 47.0823 74.254 47.5236 75.5778" stroke="#FBC740" stroke-width="3" stroke-linecap="round"/>
</svg>
