<svg width="64" height="76" viewBox="0 0 64 76" fill="none" xmlns="http://www.w3.org/2000/svg">
<path d="M2.68896 49.8563C4.99687 54.8306 7.45492 59.7862 10.8112 64.1465C11.7672 65.3885 12.7765 66.5772 13.6896 67.8513C14.8129 69.4189 16.081 70.948 17.0687 72.6066C17.3059 73.0049 17.4689 74.2968 18.1069 74.0234C19.924 73.2446 21.7291 72.4402 23.5502 71.6702C26.6981 70.3391 29.5633 68.4586 32.564 66.8416C39.5589 63.0724 46.3561 58.9485 53.1972 54.9087C53.8628 54.5157 55.3601 53.956 55.7377 53.1866C56.0784 52.4923 55.4639 51.0071 55.2166 50.3611C54.3967 48.2194 52.9947 46.269 51.9799 44.2176C50.5431 41.313 49.3142 38.3242 47.4567 35.6475C46.2014 33.8385 44.8428 32.1216 43.5239 30.363C43.0373 29.7143 42.5766 29.0908 42.3025 28.3233C42.1491 27.8939 41.9306 27.3701 41.6348 27.0205C41.4892 26.8484 41.349 26.535 41.1137 26.479C40.4033 26.3099 39.5993 26.9584 39.0373 27.2851C38.0747 27.8447 37.1228 28.4226 36.163 28.9869C30.8327 32.121 25.3574 34.9841 20.0652 38.188C17.1018 39.982 14.2707 41.9702 11.373 43.8634C9.18686 45.2916 6.9525 46.7137 4.90374 48.3377C4.46656 48.6842 3.89685 49.1875 3.3648 49.4003C3.05816 49.523 3.72707 50.5185 3.78821 50.6461C4.70053 52.5501 5.77386 54.3714 6.71139 56.2645C6.89788 56.641 7.03024 57.3537 7.32208 57.665C7.7818 58.1554 9.49312 57.1026 9.94398 56.9077C12.9013 55.6295 15.674 53.928 18.4245 52.2583C20.9159 50.746 23.3434 49.1392 25.7975 47.5682C27.7622 46.3106 29.7967 45.1677 31.7579 43.9041C34.1011 42.3943 36.4725 40.9296 38.8093 39.4094C40.6389 38.2191 42.4395 37.0124 43.6216 35.1549C43.8537 34.7901 44.3644 34.2009 44.8267 34.1737C44.9211 34.1682 45.0111 34.0247 45.0465 33.9539" stroke="white" stroke-width="2" stroke-linecap="round"/>
<path d="M36.7656 29.2638C36.6311 31.5208 36.3747 33.6775 35.992 35.8999C35.8104 36.9548 35.6663 38.004 35.6663 39.0755C35.6663 39.5255 35.6953 39.9812 35.5971 40.4231C35.5789 40.5052 35.5664 40.2529 35.5198 40.1829" stroke="white" stroke-width="2" stroke-linecap="round"/>
<path d="M35.4465 34.1004C35.6883 35.3016 35.7963 36.5819 35.593 37.8012C35.4757 38.505 35.3805 36.3804 35.418 35.6679C35.4628 34.8161 35.4072 33.8705 35.536 33.0256C35.7345 31.7249 36.3992 30.5866 36.3992 29.2638C36.3992 28.1459 35.4075 33.615 35.536 32.5045C35.6591 31.4415 35.7799 30.0054 36.3992 29.0765C36.4577 28.9887 36.6109 28.6121 36.6109 28.6327C36.6109 28.945 36.5633 29.2834 36.5416 29.5976C36.4846 30.4245 36.1761 31.2007 36.049 32.016C35.8138 33.5255 35.5168 35.0555 35.19 36.5473C34.8521 38.09 34.7136 39.6168 34.7136 41.1926C34.7136 41.5489 35.128 41.7472 35.3895 41.4857C36.1512 40.724 37.0926 40.4759 37.645 39.4501C38.0312 38.7328 37.9756 38.0487 37.8974 37.2109C37.7409 35.5346 37.859 33.83 37.6816 32.1625C37.5875 31.2777 37.494 30.4136 37.3681 29.5325C37.2903 28.9875 37.5635 28.5712 37.5635 28.0668C37.5635 27.9407 35.5483 28.5901 36.049 28.9706C36.441 29.2685 36.2538 30.0719 36.2363 30.5014C36.1813 31.8552 36.0481 33.2119 35.9595 34.5646C35.8949 35.55 35.873 36.5699 35.9269 37.557C35.9269 37.5577 35.9462 38.1005 36.0042 37.8297C36.1479 37.1594 36.1817 36.4571 36.2607 35.7778C36.3527 34.9874 36.4397 34.191 36.5864 33.4083C36.7607 32.479 36.8114 33.3255 36.8226 33.6607C36.8769 35.296 36.9628 37.1702 36.6353 38.7824C36.4262 39.8116 36.217 36.7136 36.1874 35.6638C36.1784 35.342 36.2144 34.5739 36.1305 35.444C36.0314 36.4703 35.8766 37.487 35.6704 38.4974C35.5609 39.0338 35.3324 40.2383 35.2388 38.8435C35.1817 37.9911 35.0135 36.8148 35.2714 35.9814C35.6271 34.8321 35.6283 40.7782 35.479 39.5845C35.2143 37.4662 35.3032 35.2376 35.3569 33.1071C35.3711 32.5461 35.4016 31.8867 35.2836 31.332C35.2403 31.1284 35.1301 30.8876 35.0434 30.6969C34.9083 30.3995 34.8525 31.3276 34.8317 31.6536C34.7054 33.6321 34.8898 35.6282 35.0231 37.6017C35.0347 37.7734 34.991 40.6358 35.6093 40.3621C35.9129 40.2277 36.4645 39.4079 36.5132 39.0837C36.5565 38.795 36.568 38.9639 36.4969 39.1325C36.0366 40.2234 35.3521 41.2664 34.4612 42.0435C33.8001 42.6202 32.9342 42.7905 32.2953 43.4074C31.4948 44.1802 30.54 44.8148 29.5879 45.386C29.5567 45.4048 29.08 45.7708 29.0464 45.6588C28.9756 45.4226 29.3172 44.6765 29.364 44.4903C29.6297 43.4346 29.746 42.3572 29.8729 41.2781C29.9047 41.0081 30.5947 33.4679 29.706 33.673C29.0877 33.8156 28.5201 34.1951 27.9146 34.3936C27.4882 34.5333 26.8921 34.6441 26.5222 34.9066C26.373 35.0125 26.3926 35.2923 26.3797 35.4195C26.1941 37.2545 26.0962 39.1003 25.9726 40.9402C25.8808 42.3069 25.8093 43.6425 25.8423 45.0115C25.8468 45.1978 25.7328 46.7373 26.1151 46.8028C26.7779 46.9164 27.5862 45.8505 27.9105 45.4349C28.3486 44.8734 28.3889 44.4493 28.3665 43.7453C28.3303 42.6088 28.2783 41.475 28.2688 40.3376C28.2558 38.777 28.2737 37.2163 28.2647 35.6557C28.2617 35.1294 28.2233 35.158 28.1426 35.7697C27.9401 37.3049 27.8277 38.8506 27.6296 40.3865C27.6047 40.58 27.2144 44.0342 27.2144 42.0394C27.2144 40.3076 27.2547 40.8262 27.2469 39.157C27.2423 38.1658 27.1845 39.3975 27.1818 39.4501C27.1092 40.8596 27.0352 42.2734 26.9945 43.6842C26.9879 43.9138 27.039 45.1683 26.9864 43.9774C26.9573 43.3196 26.8316 42.5735 26.9294 41.9173C27.0144 41.3463 27.1045 43.0674 27.0678 43.6435C27.0402 44.0764 26.9924 44.3472 26.9172 44.7631C26.889 44.9187 26.9071 45.3588 26.8194 45.2272C26.6968 45.0433 26.9694 44.1767 27.0596 43.9855C27.2389 43.6054 27.4003 44.9504 27.3528 45.1825C27.2545 45.6631 27.0739 46.3537 26.7665 46.7458C26.4261 47.1801 25.8194 47.347 25.366 47.6293C24.685 48.0533 23.9552 48.3294 23.2937 48.7937C22.7659 49.1642 22.3187 49.5468 21.7385 49.8237C21.2757 50.0446 20.806 50.288 20.4398 50.6543C20.2838 50.8102 20.1084 51.1168 20.1629 50.6705C20.3102 49.465 20.4392 48.2877 20.4805 47.0715C20.5523 44.9531 20.7037 42.6005 20.3176 40.5046C20.205 39.8934 19.622 39.9417 19.1125 40.0527C17.9383 40.3083 15.6511 41.2298 15.5461 42.6013C15.4453 43.9173 15.8888 45.377 15.9369 46.7051C15.9867 48.079 15.9692 49.448 16.0591 50.8212C16.1067 51.5499 15.9672 52.429 16.2097 53.1296C16.2562 53.264 16.3107 53.2197 16.3522 53.0889C16.6896 52.0249 16.8044 50.8265 16.9303 49.726C17.1442 47.8558 17.2403 45.9295 17.0769 44.0506C16.943 42.5105 16.6184 43.6546 16.5802 44.3438C16.4859 46.0443 16.9462 51.1021 17.1909 49.4166C17.441 47.6934 17.2668 45.9143 17.7161 44.2135C17.9705 43.2503 18.0644 44.1295 18.1028 44.5188C18.1861 45.3614 18.1587 46.6343 18.1436 47.4664C18.134 47.9919 18.177 48.5237 18.0906 49.042C18.0103 49.5241 18.1124 48.0647 18.1313 47.5764C18.1754 46.4374 18.2166 45.4578 18.3105 44.3194C18.3619 43.6958 18.2048 42.9579 18.5873 42.4628C18.8272 42.1524 18.7988 43.2238 18.8275 43.615C18.8984 44.58 18.9059 45.4761 18.909 46.4446C18.9106 46.9848 19.0065 47.5396 18.8805 48.0649C18.7853 48.4614 18.8272 47.2511 18.8153 46.8435C18.7804 45.6486 18.7493 44.4451 18.8601 43.2527C19.0269 41.4581 18.711 46.8553 18.5588 48.6512C18.494 49.4164 18.357 51.6693 18.1761 50.923C18.0166 50.265 17.9445 49.4931 18.0621 48.8222C18.1275 48.4492 18.0693 49.5804 18.0418 49.9581C17.971 50.93 17.99 50.4778 17.9644 50.0436C17.9229 49.3372 17.5256 51.4099 17.1257 51.9937C16.6625 52.67 16.0005 53.1943 15.5135 53.8706C15.3811 54.0545 15.0385 54.1956 14.8458 54.3021C13.8919 54.8296 12.8229 55.154 11.7924 55.4991C11.5637 55.5757 10.6258 56.0592 10.3796 55.8899C10.1445 55.7283 10.2058 55.2674 10.2005 55.0431C10.1747 53.9596 10.1008 52.8829 10.0173 51.8024C9.89245 50.1864 9.69912 48.5745 9.59387 46.9575C9.51622 45.7645 9.22775 47.4499 9.18674 47.7555C8.86845 50.1275 9.00282 52.5985 9.09311 54.982C9.09993 55.1623 9.10077 56.2353 9.00761 55.0634C8.82567 52.7749 8.64699 50.4546 8.62491 48.1586C8.61562 47.1929 8.85299 50.0766 8.95468 51.037C9.0964 52.3754 9.25274 53.7315 9.22746 55.0797C9.21979 55.4889 9.20692 56.7352 8.73483 56.9851C8.26066 57.2361 8.43658 56.0656 8.45391 55.9713C8.83054 53.9241 8.78032 51.8946 8.64119 49.8237C8.57675 48.8645 8.40506 47.899 8.40506 46.9372C8.40506 46.8885 8.39592 46.5382 8.40913 46.8883C8.43018 47.4462 8.46063 48.0036 8.47834 48.5616C8.52495 50.0296 8.45499 51.4764 8.42134 52.9423C8.39784 53.9666 8.46329 54.9909 8.53534 56.0121C8.66483 57.8475 8.52484 55.7644 8.59234 56.7937C8.59731 56.8696 8.59789 56.6417 8.60048 56.5657C8.70617 53.4707 8.67258 50.4474 9.19489 47.3809C9.26264 46.9832 9.75676 45.9656 9.42288 46.1921C9.17249 46.362 8.91392 46.7092 8.69819 46.925" stroke="white" stroke-width="2" stroke-linecap="round"/>
<path d="M23.4163 6.89264C19.645 13.5769 16.4059 20.5753 12.4981 27.182C10.5635 30.4527 8.71977 33.8236 6.9557 37.1896C5.3179 40.3147 3.35469 43.2671 1.78543 46.4383C1.49858 47.018 0.756139 48.2747 1.0804 48.9696C1.43127 49.7215 3.06312 49.7391 3.74387 50.1447C4.24795 50.445 4.34364 50.7182 4.80142 50.3258C5.96434 49.329 7.37923 48.8115 8.76725 48.2254C9.51865 47.9081 9.83078 46.3246 10.0892 45.6892C11.706 41.7138 13.9813 37.9308 16.2729 34.3254C19.071 29.9234 21.634 25.4137 24.1605 20.8563C24.9032 19.5166 25.5812 18.1467 26.2952 16.7925C26.9685 15.5157 27.8311 14.3598 28.5425 13.1058C28.7945 12.6616 29.2401 12.1524 29.2329 11.6125C29.2212 10.7334 29.1378 9.75032 28.9979 8.88535C28.8245 7.81338 27.0029 8.11248 26.2708 8.08239C25.5833 8.05414 24.6086 7.85447 23.9157 7.95019C23.0075 8.07567 22.1698 11.0015 22.0063 11.5243C21.6315 12.7224 20.9343 14.8402 22.4959 15.5783C23.5121 16.0586 24.8911 15.7144 25.9819 15.7937C26.1774 15.8079 26.147 15.9009 26.2169 16.0581C26.3137 16.2759 25.9544 16.3909 25.8154 16.4302C24.9604 16.6721 24.0136 16.6994 23.1373 16.7485C22.8829 16.7627 18.7385 17.0795 18.7748 17.1401C19.1876 17.8281 20.9317 17.3347 21.4971 17.9774C21.8176 18.3418 19.3005 19.3556 19.3428 19.3581C20.4056 19.4203 21.4774 18.9425 22.535 19.0251C23.0404 19.0646 21.5687 19.34 21.0711 19.4364C20.6918 19.5099 19.1415 19.8102 18.5741 19.74C17.633 19.6235 20.3617 19.0846 21.2914 18.8978C21.8479 18.7861 22.4068 18.6871 22.9659 18.5894C23.4199 18.51 24.6868 18.1083 24.3368 18.4082C24.1059 18.6061 23.1644 18.7196 23.4457 18.6041C23.947 18.3982 25.3202 18.2974 25.6294 17.8403C25.6614 17.7929 25.2444 17.7487 25.2083 17.7571C25.0199 17.8005 24.9819 18.1759 24.9439 18.3005C24.423 20.008 23.6256 21.6324 22.8092 23.2162C22.2733 24.2559 21.8395 25.3533 21.2327 26.3546C20.9293 26.8552 20.7189 27.4581 20.1164 27.5541C17.3598 27.9934 9.17163 29.5883 11.9595 29.4489C13.1674 29.3885 14.4214 29.0159 15.612 28.8271C15.7736 28.8015 17.4342 28.545 17.825 28.5333C18.0996 28.5252 17.3163 28.7446 17.0514 28.8173C15.7348 29.1789 14.3401 29.4466 13.0807 29.9875C11.6851 30.5868 13.7855 30.5333 13.9669 30.5309C14.3805 30.5255 14.7931 30.4877 15.2056 30.4575C15.6617 30.4241 16.849 30.0364 16.5765 30.4036C16.1542 30.9728 15.2597 30.9297 14.5887 31.1576C14.1449 31.3084 12.4145 31.8595 11.8518 32.1369C11.744 32.1899 11.4904 32.3108 11.5874 32.3817C12.0834 32.7441 12.8202 32.3809 13.4283 32.2935C14.6061 32.1243 15.9075 31.9309 17.0269 31.5004C17.5596 31.2955 15.882 31.5194 15.3182 31.6081C14.8747 31.6778 12.4051 32.2367 14.4663 31.4808C15.5387 31.0875 16.6502 30.7774 17.7075 30.3449C18.1975 30.1444 16.6634 30.5269 16.1505 30.6582C15.8238 30.7419 15.4994 30.8347 15.1713 30.9128C14.6599 31.0346 14.4998 31.0699 15.0734 30.8002C16.0578 30.3374 19.1132 29.3832 18.0257 29.4097C16.7033 29.442 15.2834 29.9692 13.9963 30.2372C11.8799 30.6777 14.6148 29.9127 14.9461 29.8259C16.8558 29.3254 11.3188 31.5157 9.8346 32.8174C8.00154 34.4251 6.50884 36.858 5.49177 39.0305C5.05899 39.955 4.3706 41.4434 5.99607 41.4982C12.3212 41.7112 4.02024 41.1909 7.5824 41.2338C7.74631 41.2358 7.0674 41.3995 7.18092 41.5177C7.3937 41.7394 10.3145 40.6034 10.3634 40.5875C11.0369 40.3688 13.0531 39.703 12.3708 39.8923C10.8353 40.318 9.31587 40.8587 7.84679 41.4737C6.96369 41.8434 6.6668 42.0187 7.74886 41.7136C8.61744 41.4687 9.43932 40.9973 10.3389 40.9253C10.4759 40.9144 10.1321 41.1104 10.0109 41.175C8.68505 41.8811 7.29978 42.4706 5.96669 43.1628C3.19331 44.6029 5.22562 43.9594 6.53953 43.5202C7.21706 43.2938 7.88082 43.0267 8.56161 42.8103C9.63882 42.4679 9.85605 42.41 8.85538 43.1335C7.15465 44.3631 7.0347 44.2509 5.37916 45.5325C4.8647 45.9308 4.20368 46.4863 5.31061 46.0221C6.3833 45.5724 9.43431 43.8695 8.38535 44.3722C6.69641 45.1814 4.78749 46.2295 3.38156 47.4763C3.31597 47.5344 3.18904 47.694 3.27384 47.7162C3.43911 47.7595 4.41287 47.3363 4.4587 47.3147C5.3547 46.8921 6.06142 46.2186 6.86757 45.6598C8.45767 44.5577 10.2765 43.822 12.0378 43.0453C13.7713 42.281 15.5527 41.3676 17.3697 40.8225C17.6589 40.7357 18.3156 40.5233 18.2754 40.8225C18.252 40.9975 17.3371 41.9877 17.5214 41.9388C17.8569 41.8499 18.7637 41.326 18.4713 41.5129C18.2041 41.6835 16.1218 42.9294 17.8397 41.9682C18.3315 41.693 19.7815 40.8571 19.3624 41.2338C18.9222 41.6293 17.472 42.5832 18.0404 42.4186C18.2173 42.3674 19.3442 41.5926 19.2645 41.4884C19.1971 41.4003 18.0549 42.3129 17.9817 42.5068C17.9328 42.6363 19.4388 41.8671 18.7455 42.1445" stroke="white" stroke-width="2" stroke-linecap="round"/>
<path d="M27.9991 53.2488C28.9225 54.9737 29.8366 56.532 31.0396 58.0127C31.1667 58.1691 31.5382 58.9354 31.7152 58.8646C32.4497 58.5708 33.1612 58.1773 33.8989 57.8756C35.6422 57.1624 37.0427 55.8647 38.7313 55.1142C39.4475 54.7959 39.6283 54.5794 40.1561 54.0077C40.4285 53.7125 39.8397 53.5623 39.6322 53.4985C37.8461 52.9489 35.9817 52.4951 34.1241 52.2794C32.6805 52.1117 31.208 51.92 29.7568 51.8534C28.8466 51.8116 28.2985 52.013 28.8461 52.9256C29.9731 54.8039 31.5694 56.5757 33.0372 58.2036C33.3483 58.5487 33.6215 59.2374 34.0409 59.457C34.5912 59.7453 34.5417 59.5001 35.0348 59.0311C36.2939 57.8334 37.7966 56.849 38.9712 55.5695C39.4742 55.0216 39.3723 54.4213 38.7803 53.9881C38.138 53.5182 37.2587 53.3788 36.5134 53.1558C35.7165 52.9173 34.9708 52.6018 34.2122 52.2647C33.5065 51.951 32.7931 51.6523 32.053 51.4274C31.8105 51.3537 30.6569 50.9373 30.3786 51.1728C30.1161 51.3949 33.3502 55.2829 33.6394 55.6674C34.7671 57.1668 33.4985 55.1804 34.315 54.7274C34.7006 54.5135 35.6162 54.2386 35.9895 54.6295C36.2089 54.8591 35.6873 55.2008 35.5391 55.0016C35.3746 54.7805 35.9786 54.243 36.156 54.1986C36.9301 54.0051 34.7944 55.0385 34.0702 55.3737C32.3978 56.1479 34.705 55.5988 35.0886 55.5401C35.6477 55.4547 36.733 55.2756 37.331 55.2366C37.5459 55.2226 38.1188 55.2503 37.9577 55.3933C37.096 56.1581 35.124 56.1631 34.0898 56.0395C34.029 56.0323 30.7904 55.1535 31.9943 54.6295C32.293 54.4995 34.3862 54.6904 33.796 55.0603C33.1141 55.4878 31.8435 55.4062 31.3872 54.6784C30.7145 53.6056 31.8874 53.6649 32.5133 54.0713C33.2187 54.5293 35.2046 55.9771 34.7948 57.0873C34.3973 58.1645 32.5386 55.7881 32.4056 55.6283C32.1167 55.2814 31.9726 54.6524 31.5243 54.6001C31.1909 54.5612 31.652 55.2612 31.7593 55.5793C32.1869 56.8476 32.6238 58.157 33.2183 59.3591C33.2504 59.4241 33.3408 59.6077 33.3456 59.5354C33.3563 59.375 33.2816 59.22 33.2379 59.0653C33.078 58.4997 32.6046 57.0277 32.4545 56.5292C32.342 56.1552 32.224 55.7824 32.1314 55.4031C32.0899 55.2331 31.9395 55.0171 32.053 54.8841C32.1406 54.7815 32.2357 55.0853 32.3027 55.2023C32.4815 55.5146 32.6373 55.8398 32.7875 56.1668C33.0611 56.7629 33.6671 58.2074 33.8744 58.8499C34.067 59.4469 34.1666 59.8034 33.659 59.2122C33.1385 58.6061 31.3569 55.9244 31.6711 58.517C31.7162 58.8885 31.8225 59.2501 31.9111 59.6137C31.9466 59.7596 31.8988 60.0858 32.0433 60.0445C32.1879 60.0032 31.9816 59.7499 31.9453 59.6039C31.8738 59.3157 31.79 59.0307 31.7201 58.7422C31.3341 57.1476 31.8323 58.5381 31.9845 58.987C32.1644 59.5178 32.074 59.1002 32.0824 58.6834C32.0927 58.1757 32.037 57.1936 32.386 56.7054C32.5584 56.4643 33.0653 56.646 33.2183 56.3921C33.3715 56.1378 33.3416 55.0725 33.375 54.8645C33.4051 54.6774 33.8254 54.106 33.9723 53.9538C34.258 53.658 34.5072 54.6069 34.7165 54.0811C35.0581 53.2229 34.8729 53.7396 35.402 54.0419" stroke="white" stroke-width="2" stroke-linecap="round"/>
<path d="M38.4865 14.5599C38.5483 14.5102 42.983 10.8427 42.6775 12.9589C42.4934 14.2344 40.7125 15.5429 39.9161 16.4841C38.7504 17.8618 37.6868 19.2288 36.9883 20.9053" stroke="white" stroke-width="2" stroke-linecap="round"/>
<path d="M37.7815 14.9124C37.1302 14.0419 36.4863 13.4838 35.4705 13.0372C34.9233 12.7967 33.6279 12.2208 33.5708 13.2478C33.5239 14.0929 33.6283 15.1082 34.0506 15.8525C34.7235 17.0384 35.545 17.9311 36.533 18.8538C36.9757 19.2673 37.3354 19.6812 37.5954 20.2296C37.8095 20.6812 37.6206 20.0358 37.6052 19.9358" stroke="white" stroke-width="2" stroke-linecap="round"/>
<path d="M37.6933 19.407C38.1247 19.0274 40.1074 17.2856 38.2613 18.6237C37.9599 18.8421 37.6903 19.4222 37.3506 19.27C37.2638 19.231 37.4405 19.1014 37.4975 19.0251C37.7927 18.6299 38.3231 18.034 38.6285 17.6934C39.1206 17.1447 39.9627 15.8949 40.7436 15.6958C41.2148 15.5757 39.4714 18.3089 39.3091 18.4964C38.3135 19.6458 38.9093 18.7045 38.418 18.2809C38.2512 18.1372 37.6107 18.1042 37.4583 18.0166C36.9899 17.747 36.971 17.147 37.0666 16.6848C37.276 15.6727 36.7829 18.7408 36.484 19.7302C36.3414 20.2021 36.0816 20.9961 35.8132 21.4683C35.7682 21.5476 35.6933 21.732 35.6272 21.669C35.3141 21.3709 35.66 20.8023 35.7349 20.3765C35.9019 19.4274 36.4123 16.6251 36.4889 17.5857C36.5152 17.9158 36.4063 18.7228 36.3616 18.9958C36.2956 19.3989 35.9141 20.2932 35.9993 20.7192C36.0521 20.9833 36.2596 20.2458 36.3567 19.9946C36.6811 19.1557 36.9731 18.2654 37.2821 17.4241C37.4368 17.0028 37.575 16.574 37.7619 16.1658C37.8423 15.9901 37.888 15.7025 38.0801 15.6811C38.5081 15.6336 37.7822 18.7878 37.7815 18.7901C37.6152 19.3338 37.367 20.3617 36.8218 20.2002C36.2087 20.0185 36.4683 18.9079 36.6358 18.2907C36.9139 17.2659 37.5581 15.9804 38.4669 15.3433C39.6908 14.4853 40.7488 15.3301 40.6163 16.6554C40.5133 17.6857 39.5482 19.0581 38.4327 18.276C37.9067 17.9073 37.7645 17.4707 37.9577 16.9394" stroke="white" stroke-width="2" stroke-linecap="round"/>
<path d="M37.7815 17.7326C38.0092 17.5768 38.5523 17.0772 38.5159 17.3507C38.489 17.5522 38.1493 17.9472 38.0654 17.762C37.8836 17.3606 38.3411 16.9176 38.5648 16.5379C38.7647 16.1989 39.4797 15.3318 39.4167 15.7203C39.259 16.6933 38.4807 17.8487 37.8647 18.5943C37.0663 19.5608 38.8125 16.2625 39.4559 15.1866C40.4858 13.4646 39.2054 16.0876 39.1132 16.2246C38.6684 16.8853 37.8923 17.8813 37.331 18.467C36.5671 19.2641 36.4552 18.9027 36.9246 18.0704C37.5052 17.0411 37.5776 17.1968 38.2564 16.2442C38.7339 15.574 38.713 14.8651 39.1426 14.1878C39.3697 13.8296 40.1592 12.9525 40.1218 13.3751C40.0258 14.46 37.7624 15.9495 36.9932 16.4547C36.9241 16.5001 35.5405 17.4081 36.1951 16.3568C36.6719 15.5911 37.7474 14.6556 38.3935 14.1193C38.9257 13.6774 40.3886 12.307 40.0973 12.9344C39.9829 13.1809 39.6981 13.304 39.4853 13.473C38.555 14.2116 36.9897 15.3558 36.0482 16.0483C33.1484 18.1816 37.17 15.3579 37.2821 15.2845C38.212 14.6761 39.5958 13.7899 40.582 13.2576C42.7512 12.0868 41.0195 13.5275 40.3813 14.0165C39.3372 14.8164 37.6853 15.986 36.5819 16.7289C36.227 16.9678 35.8921 17.2483 35.4999 17.4192C35.3866 17.4686 35.617 17.197 35.7055 17.1108C36.4509 16.3843 38.5915 14.6005 39.1817 14.1095C39.8825 13.5266 40.5787 12.9376 41.2968 12.3763C41.7862 11.9938 43.1832 10.902 42.9223 11.4656C42.6664 12.0186 40.7449 14.1383 40.6016 14.2955C40.1335 14.8091 39.6524 15.311 39.1622 15.8035C38.0229 16.9483 38.7019 16.1291 39.2258 15.5245C39.9591 14.6781 41.7506 12.7148 42.467 11.916C42.8692 11.4677 43.2795 11.0262 43.6665 10.5647C44.1431 9.99657 44.1144 9.94252 43.5295 10.3885C41.1524 12.2008 38.9051 14.1976 36.6064 16.1071C36.3566 16.3146 36.1187 16.5381 35.8524 16.724C35.7577 16.7901 36.0037 16.549 36.0874 16.4694C37.3548 15.2647 38.6749 13.8354 40.1952 12.9491C41.4877 12.1957 40.5799 13.5722 40.3225 13.9577C39.3872 15.3586 38.0868 16.7526 36.8512 17.8795C36.4112 18.2807 35.9612 18.6863 35.4411 18.9762C35.3604 19.0212 35.3031 18.7862 35.3579 18.7118C36.429 17.2595 38.4658 15.3927 40.2393 14.8929C40.4293 14.8393 40.7557 15.0144 40.7387 15.2111C40.698 15.6823 40.372 16.0908 40.1022 16.4792C39.4187 17.4631 38.0073 18.9251 37.1058 19.7106C36.7674 20.0055 36.4296 20.3293 36.014 20.4989C35.9159 20.5389 35.8312 20.303 35.8818 20.21C36.7272 18.6564 38.4659 16.664 40.0679 15.8672C40.2115 15.7958 40.5452 15.8912 40.5135 16.0483C40.4054 16.5837 40.0447 17.0395 39.7399 17.4927C39.3044 18.1401 38.8207 18.757 38.3004 19.3385C37.7623 19.94 36.5231 21.5328 36.3322 20.7486C36.2425 20.3798 36.5454 20.0135 36.7288 19.6812C37.0512 19.0971 37.4246 18.5385 37.8402 18.0166C38.3071 17.4302 38.8126 16.8701 39.3678 16.3666C40.0122 15.782 41.4771 14.3946 41.7179 15.2307C41.9588 16.067 39.6274 18.3739 39.6224 18.3789C39.1783 18.8215 38.7267 19.2996 38.1536 19.5539C37.9954 19.6241 38.0484 19.1793 38.1438 19.0349C38.8058 18.0327 40.2593 16.6547 41.3311 16.1071C41.6095 15.9649 42.1116 15.7669 42.2663 16.0385C42.5995 16.6237 40.8379 18.6412 40.8268 18.6531C40.5196 18.9817 40.1965 19.3602 39.7644 19.4854C39.5875 19.5366 39.3902 19.2477 39.407 19.0643C39.4976 18.072 40.6229 16.0027 41.0618 15.3139C41.1746 15.137 42.4344 13.2059 43.1769 13.1596C44.1279 13.1005 42.6902 15.8841 42.6726 15.9161C42.5381 16.1619 42.4085 16.4211 42.2075 16.6163C42.1563 16.666 42.147 16.4739 42.1683 16.4057C42.3457 15.8399 43.1608 14.1236 43.3385 13.7423C43.5312 13.3287 44.1593 12.1256 43.8771 12.484C43.0256 13.5652 42.3233 14.7511 41.4143 15.7937C41.0696 16.1892 40.7603 16.4892 41.1206 15.7644C41.7271 14.5441 42.4656 13.208 43.3826 12.1902C43.451 12.1143 43.6585 11.951 43.6568 12.0531C43.6524 12.3049 43.4908 12.5308 43.3728 12.7533C42.7299 13.9646 41.795 14.7533 40.9541 15.7937" stroke="white" stroke-width="2" stroke-linecap="round"/>
<path d="M35.0494 21.9628C35.549 21.4538 36.0224 20.9083 36.5427 20.4205C36.6598 20.3107 38.0373 19.3507 37.4681 20.303C37.3316 20.5313 36.0407 21.9193 35.6957 21.4977C35.3726 21.1027 36.7262 19.7273 36.9932 19.5098C37.0385 19.4729 37.422 19.2043 37.2478 19.5588C37.0762 19.9078 36.6583 20.2789 36.391 20.5037C36.2303 20.6388 34.5602 22.0202 34.2856 21.4585C33.9865 20.8467 35.371 19.3521 35.6761 18.9713C36.0497 18.5051 36.9523 17.6369 36.2098 18.8538C35.8468 19.4487 35.3969 20.1607 34.8536 20.6115C34.4146 20.9757 35.2545 18.9689 35.304 18.7412C35.3082 18.7219 33.8757 20.8816 34.1877 20.7388C34.6893 20.5092 36.6758 18.8651 36.8316 18.7412C37.3224 18.3506 37.7987 17.9408 38.3053 17.571C38.5735 17.3753 38.8233 17.0914 39.1523 17.0471C39.7504 16.9666 38.6033 18.1346 38.2123 18.5943C37.198 19.7866 36.9708 19.9082 35.9601 20.9346C34.5636 22.3529 38.9483 18.2082 40.7583 17.38C40.8479 17.3391 41.0737 17.4279 41.0227 17.5122C40.8509 17.7961 40.5594 17.9967 40.2784 18.1732C40.0242 18.333 39.7415 18.5029 39.4412 18.5061C39.3308 18.5073 39.3026 18.2722 39.3678 18.183C39.6822 17.7524 40.542 17.3063 41.0422 17.2038C42.8117 16.8413 40.519 17.5573 41.4829 17.7326" stroke="white" stroke-width="2" stroke-linecap="round"/>
<path d="M33.5525 62.689C33.3384 62.3713 32.7113 61.4182 32.9774 61.6938C33.2577 61.9841 33.8743 63.0269 33.7073 62.6595C33.4127 62.0116 33.0666 61.0725 33.4271 60.3816C33.7486 59.7654 33.5144 59.9472 33.523 60.4553C33.5306 60.9048 33.5849 62.0099 33.9432 62.3425C33.9569 62.3553 34.7731 60.7783 34.7984 60.7354C35.0625 60.2874 35.8997 59.0246 35.7936 59.5338C35.6398 60.2719 34.4422 62.229 34.8057 61.5685C35.9516 59.4867 37.4137 57.6311 38.9341 55.8182C41.4351 52.8362 33.0377 52.5452 31.6947 52.3386" stroke="white" stroke-width="2" stroke-linecap="round"/>
<path d="M36.8493 16.0668C38.1681 15.0006 39.2273 13.9186 40.971 14.2093C41.364 14.2748 42.0024 14.3294 42.2665 14.6951C42.4903 15.005 42.2466 15.6056 42.1078 15.8986C41.7275 16.7013 41.269 17.3207 40.5391 17.8387C39.0569 18.8906 37.362 19.6546 35.9221 20.7664C35.497 21.0947 35.0199 21.2854 34.5726 21.5761C34.5532 21.5887 34.3027 21.7609 34.3027 21.7C34.3027 21.154 34.7652 20.5079 34.9092 19.9853C35.1305 19.182 34.6489 18.9432 34.3345 18.3404C33.8686 17.4475 33.6919 16.1665 33.6518 15.1619C33.6217 14.4096 33.4808 13.1624 34.4361 12.8915C34.9607 12.7427 35.3665 13.2095 35.557 13.6345C35.7703 14.1104 35.7011 14.7172 35.7062 15.2222C35.7125 15.8426 35.7911 16.5297 35.992 17.1179C36.3046 18.0334 36.9608 17.6329 37.7194 17.1909C38.4825 16.7463 39.2669 16.004 40.1073 15.7239" stroke="white" stroke-width="3" stroke-linecap="round"/>
</svg>
