<svg width="65" height="77" viewBox="0 0 65 77" fill="none" xmlns="http://www.w3.org/2000/svg">
<path d="M2.68896 50.8563C4.99687 55.8306 7.45492 60.7862 10.8112 65.1465C11.7672 66.3885 12.7765 67.5772 13.6896 68.8513C14.8129 70.4189 16.081 71.948 17.0687 73.6066C17.3059 74.0049 17.4689 75.2968 18.1069 75.0234C19.924 74.2446 21.7291 73.4402 23.5502 72.6702C26.6981 71.3391 29.5633 69.4586 32.564 67.8416C39.5589 64.0724 46.3561 59.9485 53.1972 55.9087C53.8628 55.5157 55.3601 54.956 55.7377 54.1866C56.0784 53.4923 55.4639 52.0071 55.2166 51.3611C54.3967 49.2194 52.9947 47.269 51.9799 45.2176C50.5431 42.313 49.3142 39.3242 47.4567 36.6475C46.2014 34.8385 44.8428 33.1216 43.5239 31.363C43.0373 30.7143 42.5766 30.0908 42.3025 29.3233C42.1491 28.8939 41.9306 28.3701 41.6348 28.0205C41.4892 27.8484 41.349 27.535 41.1137 27.479C40.4033 27.3099 39.5993 27.9584 39.0373 28.2851C38.0747 28.8447 37.1228 29.4226 36.163 29.9869C30.8327 33.121 25.3574 35.9841 20.0652 39.188C17.1018 40.982 14.2707 42.9702 11.373 44.8634C9.18686 46.2916 6.9525 47.7137 4.90374 49.3377C4.46656 49.6842 3.89685 50.1875 3.3648 50.4003C3.05816 50.523 3.72707 51.5185 3.78821 51.6461C4.70053 53.5501 5.77386 55.3714 6.71139 57.2645C6.89788 57.641 7.03024 58.3537 7.32208 58.665C7.7818 59.1554 9.49312 58.1026 9.94398 57.9077C12.9013 56.6295 15.674 54.928 18.4245 53.2583C20.9159 51.746 23.3434 50.1392 25.7975 48.5682C27.7622 47.3106 29.7967 46.1677 31.7579 44.9041C34.1011 43.3943 36.4725 41.9296 38.8093 40.4094C40.6389 39.2191 42.4395 38.0124 43.6216 36.1549C43.8537 35.7901 44.3644 35.2009 44.8267 35.1737C44.9211 35.1682 45.0111 35.0247 45.0465 34.9539" stroke="black" stroke-width="2" stroke-linecap="round"/>
<path d="M36.7656 30.2638C36.6311 32.5208 36.3747 34.6775 35.992 36.8999C35.8104 37.9548 35.6663 39.004 35.6663 40.0755C35.6663 40.5255 35.6953 40.9812 35.5971 41.4231C35.5789 41.5052 35.5664 41.2529 35.5198 41.1829" stroke="white" stroke-width="2" stroke-linecap="round"/>
<path d="M35.4465 35.1004C35.6883 36.3016 35.7963 37.5819 35.593 38.8012C35.4757 39.505 35.3805 37.3804 35.418 36.6679C35.4628 35.8161 35.4072 34.8705 35.536 34.0256C35.7345 32.7249 36.3992 31.5866 36.3992 30.2638C36.3992 29.1459 35.4075 34.615 35.536 33.5045C35.6591 32.4415 35.7799 31.0054 36.3992 30.0765C36.4577 29.9887 36.6109 29.6121 36.6109 29.6327C36.6109 29.945 36.5633 30.2834 36.5416 30.5976C36.4846 31.4245 36.1761 32.2007 36.049 33.016C35.8138 34.5255 35.5168 36.0555 35.19 37.5473C34.8521 39.09 34.7136 40.6168 34.7136 42.1926C34.7136 42.5489 35.128 42.7472 35.3895 42.4857C36.1512 41.724 37.0926 41.4759 37.645 40.4501C38.0312 39.7328 37.9756 39.0487 37.8974 38.2109C37.7409 36.5346 37.859 34.83 37.6816 33.1625C37.5875 32.2777 37.494 31.4136 37.3681 30.5325C37.2903 29.9875 37.5635 29.5712 37.5635 29.0668C37.5635 28.9407 35.5483 29.5901 36.049 29.9706C36.441 30.2685 36.2538 31.0719 36.2363 31.5014C36.1813 32.8552 36.0481 34.2119 35.9595 35.5646C35.8949 36.55 35.873 37.5699 35.9269 38.557C35.9269 38.5577 35.9462 39.1005 36.0042 38.8297C36.1479 38.1594 36.1817 37.4571 36.2607 36.7778C36.3527 35.9874 36.4397 35.191 36.5864 34.4083C36.7607 33.479 36.8114 34.3255 36.8226 34.6607C36.8769 36.296 36.9628 38.1702 36.6353 39.7824C36.4262 40.8116 36.217 37.7136 36.1874 36.6638C36.1784 36.342 36.2144 35.5739 36.1305 36.444C36.0314 37.4703 35.8766 38.487 35.6704 39.4974C35.5609 40.0338 35.3324 41.2383 35.2388 39.8435C35.1817 38.9911 35.0135 37.8148 35.2714 36.9814C35.6271 35.8321 35.6283 41.7782 35.479 40.5845C35.2143 38.4662 35.3032 36.2376 35.3569 34.1071C35.3711 33.5461 35.4016 32.8867 35.2836 32.332C35.2403 32.1284 35.1301 31.8876 35.0434 31.6969C34.9083 31.3995 34.8525 32.3276 34.8317 32.6536C34.7054 34.6321 34.8898 36.6282 35.0231 38.6017C35.0347 38.7734 34.991 41.6358 35.6093 41.3621C35.9129 41.2277 36.4645 40.4079 36.5132 40.0837C36.5565 39.795 36.568 39.9639 36.4969 40.1325C36.0366 41.2234 35.3521 42.2664 34.4612 43.0435C33.8001 43.6202 32.9342 43.7905 32.2953 44.4074C31.4948 45.1802 30.54 45.8148 29.5879 46.386C29.5567 46.4048 29.08 46.7708 29.0464 46.6588C28.9756 46.4226 29.3172 45.6765 29.364 45.4903C29.6297 44.4346 29.746 43.3572 29.8729 42.2781C29.9047 42.0081 30.5947 34.4679 29.706 34.673C29.0877 34.8156 28.5201 35.1951 27.9146 35.3936C27.4882 35.5333 26.8921 35.6441 26.5222 35.9066C26.373 36.0125 26.3926 36.2923 26.3797 36.4195C26.1941 38.2545 26.0962 40.1003 25.9726 41.9402C25.8808 43.3069 25.8093 44.6425 25.8423 46.0115C25.8468 46.1978 25.7328 47.7373 26.1151 47.8028C26.7779 47.9164 27.5862 46.8505 27.9105 46.4349C28.3486 45.8734 28.3889 45.4493 28.3665 44.7453C28.3303 43.6088 28.2783 42.475 28.2688 41.3376C28.2558 39.777 28.2737 38.2163 28.2647 36.6557C28.2617 36.1294 28.2233 36.158 28.1426 36.7697C27.9401 38.3049 27.8277 39.8506 27.6296 41.3865C27.6047 41.58 27.2144 45.0342 27.2144 43.0394C27.2144 41.3076 27.2547 41.8262 27.2469 40.157C27.2423 39.1658 27.1845 40.3975 27.1818 40.4501C27.1092 41.8596 27.0352 43.2734 26.9945 44.6842C26.9879 44.9138 27.039 46.1683 26.9864 44.9774C26.9573 44.3196 26.8316 43.5735 26.9294 42.9173C27.0144 42.3463 27.1045 44.0674 27.0678 44.6435C27.0402 45.0764 26.9924 45.3472 26.9172 45.7631C26.889 45.9187 26.9071 46.3588 26.8194 46.2272C26.6968 46.0433 26.9694 45.1767 27.0596 44.9855C27.2389 44.6054 27.4003 45.9504 27.3528 46.1825C27.2545 46.6631 27.0739 47.3537 26.7665 47.7458C26.4261 48.1801 25.8194 48.347 25.366 48.6293C24.685 49.0533 23.9552 49.3294 23.2937 49.7937C22.7659 50.1642 22.3187 50.5468 21.7385 50.8237C21.2757 51.0446 20.806 51.288 20.4398 51.6543C20.2838 51.8102 20.1084 52.1168 20.1629 51.6705C20.3102 50.465 20.4392 49.2877 20.4805 48.0715C20.5523 45.9531 20.7037 43.6005 20.3176 41.5046C20.205 40.8934 19.622 40.9417 19.1125 41.0527C17.9383 41.3083 15.6511 42.2298 15.5461 43.6013C15.4453 44.9173 15.8888 46.377 15.9369 47.7051C15.9867 49.079 15.9692 50.448 16.0591 51.8212C16.1067 52.5499 15.9672 53.429 16.2097 54.1296C16.2562 54.264 16.3107 54.2197 16.3522 54.0889C16.6896 53.0249 16.8044 51.8265 16.9303 50.726C17.1442 48.8558 17.2403 46.9295 17.0769 45.0506C16.943 43.5105 16.6184 44.6546 16.5802 45.3438C16.4859 47.0443 16.9462 52.1021 17.1909 50.4166C17.441 48.6934 17.2668 46.9143 17.7161 45.2135C17.9705 44.2503 18.0644 45.1295 18.1028 45.5188C18.1861 46.3614 18.1587 47.6343 18.1436 48.4664C18.134 48.9919 18.177 49.5237 18.0906 50.042C18.0103 50.5241 18.1124 49.0647 18.1313 48.5764C18.1754 47.4374 18.2166 46.4578 18.3105 45.3194C18.3619 44.6958 18.2048 43.9579 18.5873 43.4628C18.8272 43.1524 18.7988 44.2238 18.8275 44.615C18.8984 45.58 18.9059 46.4761 18.909 47.4446C18.9106 47.9848 19.0065 48.5396 18.8805 49.0649C18.7853 49.4614 18.8272 48.2511 18.8153 47.8435C18.7804 46.6486 18.7493 45.4451 18.8601 44.2527C19.0269 42.4581 18.711 47.8553 18.5588 49.6512C18.494 50.4164 18.357 52.6693 18.1761 51.923C18.0166 51.265 17.9445 50.4931 18.0621 49.8222C18.1275 49.4492 18.0693 50.5804 18.0418 50.9581C17.971 51.93 17.99 51.4778 17.9644 51.0436C17.9229 50.3372 17.5256 52.4099 17.1257 52.9937C16.6625 53.67 16.0005 54.1943 15.5135 54.8706C15.3811 55.0545 15.0385 55.1956 14.8458 55.3021C13.8919 55.8296 12.8229 56.154 11.7924 56.4991C11.5637 56.5757 10.6258 57.0592 10.3796 56.8899C10.1445 56.7283 10.2058 56.2674 10.2005 56.0431C10.1747 54.9596 10.1008 53.8829 10.0173 52.8024C9.89245 51.1864 9.69912 49.5745 9.59387 47.9575C9.51622 46.7645 9.22775 48.4499 9.18674 48.7555C8.86845 51.1275 9.00282 53.5985 9.09311 55.982C9.09993 56.1623 9.10077 57.2353 9.00761 56.0634C8.82567 53.7749 8.64699 51.4546 8.62491 49.1586C8.61562 48.1929 8.85299 51.0766 8.95468 52.037C9.0964 53.3754 9.25274 54.7315 9.22746 56.0797C9.21979 56.4889 9.20692 57.7352 8.73483 57.9851C8.26066 58.2361 8.43658 57.0656 8.45391 56.9713C8.83054 54.9241 8.78032 52.8946 8.64119 50.8237C8.57675 49.8645 8.40506 48.899 8.40506 47.9372C8.40506 47.8885 8.39592 47.5382 8.40913 47.8883C8.43018 48.4462 8.46063 49.0036 8.47834 49.5616C8.52495 51.0296 8.45499 52.4764 8.42134 53.9423C8.39784 54.9666 8.46329 55.9909 8.53534 57.0121C8.66483 58.8475 8.52484 56.7644 8.59234 57.7937C8.59731 57.8696 8.59789 57.6417 8.60048 57.5657C8.70617 54.4707 8.67258 51.4474 9.19489 48.3809C9.26264 47.9832 9.75676 46.9656 9.42288 47.1921C9.17249 47.362 8.91392 47.7092 8.69819 47.925" stroke="black" stroke-width="2" stroke-linecap="round"/>
<path d="M23.4163 7.89264C19.645 14.5769 16.4059 21.5753 12.4981 28.182C10.5635 31.4527 8.71977 34.8236 6.9557 38.1896C5.3179 41.3147 3.35469 44.2671 1.78543 47.4383C1.49858 48.018 0.756139 49.2747 1.0804 49.9696C1.43127 50.7215 3.06312 50.7391 3.74387 51.1447C4.24795 51.445 4.34364 51.7182 4.80142 51.3258C5.96434 50.329 7.37923 49.8115 8.76725 49.2254C9.51865 48.9081 9.83078 47.3246 10.0892 46.6892C11.706 42.7138 13.9813 38.9308 16.2729 35.3254C19.071 30.9234 21.634 26.4137 24.1605 21.8563C24.9032 20.5166 25.5812 19.1467 26.2952 17.7925C26.9685 16.5157 27.8311 15.3598 28.5425 14.1058C28.7945 13.6616 29.2401 13.1524 29.2329 12.6125C29.2212 11.7334 29.1378 10.7503 28.9979 9.88535C28.8245 8.81338 27.0029 9.11248 26.2708 9.08239C25.5833 9.05414 24.6086 8.85447 23.9157 8.95019C23.0075 9.07567 22.1698 12.0015 22.0063 12.5243C21.6315 13.7224 20.9343 15.8402 22.4959 16.5783C23.5121 17.0586 24.8911 16.7144 25.9819 16.7937C26.1774 16.8079 26.147 16.9009 26.2169 17.0581C26.3137 17.2759 25.9544 17.3909 25.8154 17.4302C24.9604 17.6721 24.0136 17.6994 23.1373 17.7485C22.8829 17.7627 18.7385 18.0795 18.7748 18.1401C19.1876 18.8281 20.9317 18.3347 21.4971 18.9774C21.8176 19.3418 19.3005 20.3556 19.3428 20.3581C20.4056 20.4203 21.4774 19.9425 22.535 20.0251C23.0404 20.0646 21.5687 20.34 21.0711 20.4364C20.6918 20.5099 19.1415 20.8102 18.5741 20.74C17.633 20.6235 20.3617 20.0846 21.2914 19.8978C21.8479 19.7861 22.4068 19.6871 22.9659 19.5894C23.4199 19.51 24.6868 19.1083 24.3368 19.4082C24.1059 19.6061 23.1644 19.7196 23.4457 19.6041C23.947 19.3982 25.3202 19.2974 25.6294 18.8403C25.6614 18.7929 25.2444 18.7487 25.2083 18.7571C25.0199 18.8005 24.9819 19.1759 24.9439 19.3005C24.423 21.008 23.6256 22.6324 22.8092 24.2162C22.2733 25.2559 21.8395 26.3533 21.2327 27.3546C20.9293 27.8552 20.7189 28.4581 20.1164 28.5541C17.3598 28.9934 9.17163 30.5883 11.9595 30.4489C13.1674 30.3885 14.4214 30.0159 15.612 29.8271C15.7736 29.8015 17.4342 29.545 17.825 29.5333C18.0996 29.5252 17.3163 29.7446 17.0514 29.8173C15.7348 30.1789 14.3401 30.4466 13.0807 30.9875C11.6851 31.5868 13.7855 31.5333 13.9669 31.5309C14.3805 31.5255 14.7931 31.4877 15.2056 31.4575C15.6617 31.4241 16.849 31.0364 16.5765 31.4036C16.1542 31.9728 15.2597 31.9297 14.5887 32.1576C14.1449 32.3084 12.4145 32.8595 11.8518 33.1369C11.744 33.1899 11.4904 33.3108 11.5874 33.3817C12.0834 33.7441 12.8202 33.3809 13.4283 33.2935C14.6061 33.1243 15.9075 32.9309 17.0269 32.5004C17.5596 32.2955 15.882 32.5194 15.3182 32.6081C14.8747 32.6778 12.4051 33.2367 14.4663 32.4808C15.5387 32.0875 16.6502 31.7774 17.7075 31.3449C18.1975 31.1444 16.6634 31.5269 16.1505 31.6582C15.8238 31.7419 15.4994 31.8347 15.1713 31.9128C14.6599 32.0346 14.4998 32.0699 15.0734 31.8002C16.0578 31.3374 19.1132 30.3832 18.0257 30.4097C16.7033 30.442 15.2834 30.9692 13.9963 31.2372C11.8799 31.6777 14.6148 30.9127 14.9461 30.8259C16.8558 30.3254 11.3188 32.5157 9.8346 33.8174C8.00154 35.4251 6.50884 37.858 5.49177 40.0305C5.05899 40.955 4.3706 42.4434 5.99607 42.4982C12.3212 42.7112 4.02024 42.1909 7.5824 42.2338C7.74631 42.2358 7.0674 42.3995 7.18092 42.5177C7.3937 42.7394 10.3145 41.6034 10.3634 41.5875C11.0369 41.3688 13.0531 40.703 12.3708 40.8923C10.8353 41.318 9.31587 41.8587 7.84679 42.4737C6.96369 42.8434 6.6668 43.0187 7.74886 42.7136C8.61744 42.4687 9.43932 41.9973 10.3389 41.9253C10.4759 41.9144 10.1321 42.1104 10.0109 42.175C8.68505 42.8811 7.29978 43.4706 5.96669 44.1628C3.19331 45.6029 5.22562 44.9594 6.53953 44.5202C7.21706 44.2938 7.88082 44.0267 8.56161 43.8103C9.63882 43.4679 9.85605 43.41 8.85538 44.1335C7.15465 45.3631 7.0347 45.2509 5.37916 46.5325C4.8647 46.9308 4.20368 47.4863 5.31061 47.0221C6.3833 46.5724 9.43431 44.8695 8.38535 45.3722C6.69641 46.1814 4.78749 47.2295 3.38156 48.4763C3.31597 48.5344 3.18904 48.694 3.27384 48.7162C3.43911 48.7595 4.41287 48.3363 4.4587 48.3147C5.3547 47.8921 6.06142 47.2186 6.86757 46.6598C8.45767 45.5577 10.2765 44.822 12.0378 44.0453C13.7713 43.281 15.5527 42.3676 17.3697 41.8225C17.6589 41.7357 18.3156 41.5233 18.2754 41.8225C18.252 41.9975 17.3371 42.9877 17.5214 42.9388C17.8569 42.8499 18.7637 42.326 18.4713 42.5129C18.2041 42.6835 16.1218 43.9294 17.8397 42.9682C18.3315 42.693 19.7815 41.8571 19.3624 42.2338C18.9222 42.6293 17.472 43.5832 18.0404 43.4186C18.2173 43.3674 19.3442 42.5926 19.2645 42.4884C19.1971 42.4003 18.0549 43.3129 17.9817 43.5068C17.9328 43.6363 19.4388 42.8671 18.7455 43.1445" stroke="black" stroke-width="2" stroke-linecap="round"/>
<path d="M27.9991 54.2488C28.9225 55.9737 29.8366 57.532 31.0396 59.0127C31.1667 59.1691 31.5382 59.9354 31.7152 59.8646C32.4497 59.5708 33.1612 59.1773 33.8989 58.8756C35.6422 58.1624 37.0427 56.8647 38.7313 56.1142C39.4475 55.7959 39.6283 55.5794 40.1561 55.0077C40.4285 54.7125 39.8397 54.5623 39.6322 54.4985C37.8461 53.9489 35.9817 53.4951 34.1241 53.2794C32.6805 53.1117 31.208 52.92 29.7568 52.8534C28.8466 52.8116 28.2985 53.013 28.8461 53.9256C29.9731 55.8039 31.5694 57.5757 33.0372 59.2036C33.3483 59.5487 33.6215 60.2374 34.0409 60.457C34.5912 60.7453 34.5417 60.5001 35.0348 60.0311C36.2939 58.8334 37.7966 57.849 38.9712 56.5695C39.4742 56.0216 39.3723 55.4213 38.7803 54.9881C38.138 54.5182 37.2587 54.3788 36.5134 54.1558C35.7165 53.9173 34.9708 53.6018 34.2122 53.2647C33.5065 52.951 32.7931 52.6523 32.053 52.4274C31.8105 52.3537 30.6569 51.9373 30.3786 52.1728C30.1161 52.3949 33.3502 56.2829 33.6394 56.6674C34.7671 58.1668 33.4985 56.1804 34.315 55.7274C34.7006 55.5135 35.6162 55.2386 35.9895 55.6295C36.2089 55.8591 35.6873 56.2008 35.5391 56.0016C35.3746 55.7805 35.9786 55.243 36.156 55.1986C36.9301 55.0051 34.7944 56.0385 34.0702 56.3737C32.3978 57.1479 34.705 56.5988 35.0886 56.5401C35.6477 56.4547 36.733 56.2756 37.331 56.2366C37.5459 56.2226 38.1188 56.2503 37.9577 56.3933C37.096 57.1581 35.124 57.1631 34.0898 57.0395C34.029 57.0323 30.7904 56.1535 31.9943 55.6295C32.293 55.4995 34.3862 55.6904 33.796 56.0603C33.1141 56.4878 31.8435 56.4062 31.3872 55.6784C30.7145 54.6056 31.8874 54.6649 32.5133 55.0713C33.2187 55.5293 35.2046 56.9771 34.7948 58.0873C34.3973 59.1645 32.5386 56.7881 32.4056 56.6283C32.1167 56.2814 31.9726 55.6524 31.5243 55.6001C31.1909 55.5612 31.652 56.2612 31.7593 56.5793C32.1869 57.8476 32.6238 59.157 33.2183 60.3591C33.2504 60.4241 33.3408 60.6077 33.3456 60.5354C33.3563 60.375 33.2816 60.22 33.2379 60.0653C33.078 59.4997 32.6046 58.0277 32.4545 57.5292C32.342 57.1552 32.224 56.7824 32.1314 56.4031C32.0899 56.2331 31.9395 56.0171 32.053 55.8841C32.1406 55.7815 32.2357 56.0853 32.3027 56.2023C32.4815 56.5146 32.6373 56.8398 32.7875 57.1668C33.0611 57.7629 33.6671 59.2074 33.8744 59.8499C34.067 60.4469 34.1666 60.8034 33.659 60.2122C33.1385 59.6061 31.3569 56.9244 31.6711 59.517C31.7162 59.8885 31.8225 60.2501 31.9111 60.6137C31.9466 60.7596 31.8988 61.0858 32.0433 61.0445C32.1879 61.0032 31.9816 60.7499 31.9453 60.6039C31.8738 60.3157 31.79 60.0307 31.7201 59.7422C31.3341 58.1476 31.8323 59.5381 31.9845 59.987C32.1644 60.5178 32.074 60.1002 32.0824 59.6834C32.0927 59.1757 32.037 58.1936 32.386 57.7054C32.5584 57.4643 33.0653 57.646 33.2183 57.3921C33.3715 57.1378 33.3416 56.0725 33.375 55.8645C33.4051 55.6774 33.8254 55.106 33.9723 54.9538C34.258 54.658 34.5072 55.6069 34.7165 55.0811C35.0581 54.2229 34.8729 54.7396 35.402 55.0419" stroke="black" stroke-width="2" stroke-linecap="round"/>
<path d="M38.4865 15.5599C38.5483 15.5102 42.983 11.8427 42.6775 13.9589C42.4934 15.2344 40.7125 16.5429 39.9161 17.4841C38.7504 18.8618 37.6868 20.2288 36.9883 21.9053" stroke="black" stroke-width="2" stroke-linecap="round"/>
<path d="M37.7815 15.9124C37.1302 15.0419 36.4863 14.4838 35.4705 14.0372C34.9233 13.7967 33.6279 13.2208 33.5708 14.2478C33.5239 15.0929 33.6283 16.1082 34.0506 16.8525C34.7235 18.0384 35.545 18.9311 36.533 19.8538C36.9757 20.2673 37.3354 20.6812 37.5954 21.2296C37.8095 21.6812 37.6206 21.0358 37.6052 20.9358" stroke="white" stroke-width="2" stroke-linecap="round"/>
<path d="M37.6933 20.407C38.1247 20.0274 40.1074 18.2856 38.2613 19.6237C37.9599 19.8421 37.6903 20.4222 37.3506 20.27C37.2638 20.231 37.4405 20.1014 37.4975 20.0251C37.7927 19.6299 38.3231 19.034 38.6285 18.6934C39.1206 18.1447 39.9627 16.8949 40.7436 16.6958C41.2148 16.5757 39.4714 19.3089 39.3091 19.4964C38.3135 20.6458 38.9093 19.7045 38.418 19.2809C38.2512 19.1372 37.6107 19.1042 37.4583 19.0166C36.9899 18.747 36.971 18.147 37.0666 17.6848C37.276 16.6727 36.7829 19.7408 36.484 20.7302C36.3414 21.2021 36.0816 21.9961 35.8132 22.4683C35.7682 22.5476 35.6933 22.732 35.6272 22.669C35.3141 22.3709 35.66 21.8023 35.7349 21.3765C35.9019 20.4274 36.4123 17.6251 36.4889 18.5857C36.5152 18.9158 36.4063 19.7228 36.3616 19.9958C36.2956 20.3989 35.9141 21.2932 35.9993 21.7192C36.0521 21.9833 36.2596 21.2458 36.3567 20.9946C36.6811 20.1557 36.9731 19.2654 37.2821 18.4241C37.4368 18.0028 37.575 17.574 37.7619 17.1658C37.8423 16.9901 37.888 16.7025 38.0801 16.6811C38.5081 16.6336 37.7822 19.7878 37.7815 19.7901C37.6152 20.3338 37.367 21.3617 36.8218 21.2002C36.2087 21.0185 36.4683 19.9079 36.6358 19.2907C36.9139 18.2659 37.5581 16.9804 38.4669 16.3433C39.6908 15.4853 40.7488 16.3301 40.6163 17.6554C40.5133 18.6857 39.5482 20.0581 38.4327 19.276C37.9067 18.9073 37.7645 18.4707 37.9577 17.9394" stroke="black" stroke-width="2" stroke-linecap="round"/>
<path d="M37.7815 18.7326C38.0092 18.5768 38.5523 18.0772 38.5159 18.3507C38.489 18.5522 38.1493 18.9472 38.0654 18.762C37.8836 18.3606 38.3411 17.9176 38.5648 17.5379C38.7647 17.1989 39.4797 16.3318 39.4167 16.7203C39.259 17.6933 38.4807 18.8487 37.8647 19.5943C37.0663 20.5608 38.8125 17.2625 39.4559 16.1866C40.4858 14.4646 39.2054 17.0876 39.1132 17.2246C38.6684 17.8853 37.8923 18.8813 37.331 19.467C36.5671 20.2641 36.4552 19.9027 36.9246 19.0704C37.5052 18.0411 37.5776 18.1968 38.2564 17.2442C38.7339 16.574 38.713 15.8651 39.1426 15.1878C39.3697 14.8296 40.1592 13.9525 40.1218 14.3751C40.0258 15.46 37.7624 16.9495 36.9932 17.4547C36.9241 17.5001 35.5405 18.4081 36.1951 17.3568C36.6719 16.5911 37.7474 15.6556 38.3935 15.1193C38.9257 14.6774 40.3886 13.307 40.0973 13.9344C39.9829 14.1809 39.6981 14.304 39.4853 14.473C38.555 15.2116 36.9897 16.3558 36.0482 17.0483C33.1484 19.1816 37.17 16.3579 37.2821 16.2845C38.212 15.6761 39.5958 14.7899 40.582 14.2576C42.7512 13.0868 41.0195 14.5275 40.3813 15.0165C39.3372 15.8164 37.6853 16.986 36.5819 17.7289C36.227 17.9678 35.8921 18.2483 35.4999 18.4192C35.3866 18.4686 35.617 18.197 35.7055 18.1108C36.4509 17.3843 38.5915 15.6005 39.1817 15.1095C39.8825 14.5266 40.5787 13.9376 41.2968 13.3763C41.7862 12.9938 43.1832 11.902 42.9223 12.4656C42.6664 13.0186 40.7449 15.1383 40.6016 15.2955C40.1335 15.8091 39.6524 16.311 39.1622 16.8035C38.0229 17.9483 38.7019 17.1291 39.2258 16.5245C39.9591 15.6781 41.7506 13.7148 42.467 12.916C42.8692 12.4677 43.2795 12.0262 43.6665 11.5647C44.1431 10.9966 44.1144 10.9425 43.5295 11.3885C41.1524 13.2008 38.9051 15.1976 36.6064 17.1071C36.3566 17.3146 36.1187 17.5381 35.8524 17.724C35.7577 17.7901 36.0037 17.549 36.0874 17.4694C37.3548 16.2647 38.6749 14.8354 40.1952 13.9491C41.4877 13.1957 40.5799 14.5722 40.3225 14.9577C39.3872 16.3586 38.0868 17.7526 36.8512 18.8795C36.4112 19.2807 35.9612 19.6863 35.4411 19.9762C35.3604 20.0212 35.3031 19.7862 35.3579 19.7118C36.429 18.2595 38.4658 16.3927 40.2393 15.8929C40.4293 15.8393 40.7557 16.0144 40.7387 16.2111C40.698 16.6823 40.372 17.0908 40.1022 17.4792C39.4187 18.4631 38.0073 19.9251 37.1058 20.7106C36.7674 21.0055 36.4296 21.3293 36.014 21.4989C35.9159 21.5389 35.8312 21.303 35.8818 21.21C36.7272 19.6564 38.4659 17.664 40.0679 16.8672C40.2115 16.7958 40.5452 16.8912 40.5135 17.0483C40.4054 17.5837 40.0447 18.0395 39.7399 18.4927C39.3044 19.1401 38.8207 19.757 38.3004 20.3385C37.7623 20.94 36.5231 22.5328 36.3322 21.7486C36.2425 21.3798 36.5454 21.0135 36.7288 20.6812C37.0512 20.0971 37.4246 19.5385 37.8402 19.0166C38.3071 18.4302 38.8126 17.8701 39.3678 17.3666C40.0122 16.782 41.4771 15.3946 41.7179 16.2307C41.9588 17.067 39.6274 19.3739 39.6224 19.3789C39.1783 19.8215 38.7267 20.2996 38.1536 20.5539C37.9954 20.6241 38.0484 20.1793 38.1438 20.0349C38.8058 19.0327 40.2593 17.6547 41.3311 17.1071C41.6095 16.9649 42.1116 16.7669 42.2663 17.0385C42.5995 17.6237 40.8379 19.6412 40.8268 19.6531C40.5196 19.9817 40.1965 20.3602 39.7644 20.4854C39.5875 20.5366 39.3902 20.2477 39.407 20.0643C39.4976 19.072 40.6229 17.0027 41.0618 16.3139C41.1746 16.137 42.4344 14.2059 43.1769 14.1596C44.1279 14.1005 42.6902 16.8841 42.6726 16.9161C42.5381 17.1619 42.4085 17.4211 42.2075 17.6163C42.1563 17.666 42.147 17.4739 42.1683 17.4057C42.3457 16.8399 43.1608 15.1236 43.3385 14.7423C43.5312 14.3287 44.1593 13.1256 43.8771 13.484C43.0256 14.5652 42.3233 15.7511 41.4143 16.7937C41.0696 17.1892 40.7603 17.4892 41.1206 16.7644C41.7271 15.5441 42.4656 14.208 43.3826 13.1902C43.451 13.1143 43.6585 12.951 43.6568 13.0531C43.6524 13.3049 43.4908 13.5308 43.3728 13.7533C42.7299 14.9646 41.795 15.7533 40.9541 16.7937" stroke="white" stroke-width="2" stroke-linecap="round"/>
<path d="M35.0494 22.9628C35.549 22.4538 36.0224 21.9083 36.5427 21.4205C36.6598 21.3107 38.0373 20.3507 37.4681 21.303C37.3316 21.5313 36.0407 22.9193 35.6957 22.4977C35.3726 22.1027 36.7262 20.7273 36.9932 20.5098C37.0385 20.4729 37.422 20.2043 37.2478 20.5588C37.0762 20.9078 36.6583 21.2789 36.391 21.5037C36.2303 21.6388 34.5602 23.0202 34.2856 22.4585C33.9865 21.8467 35.371 20.3521 35.6761 19.9713C36.0497 19.5051 36.9523 18.6369 36.2098 19.8538C35.8468 20.4487 35.3969 21.1607 34.8536 21.6115C34.4146 21.9757 35.2545 19.9689 35.304 19.7412C35.3082 19.7219 33.8757 21.8816 34.1877 21.7388C34.6893 21.5092 36.6758 19.8651 36.8316 19.7412C37.3224 19.3506 37.7987 18.9408 38.3053 18.571C38.5735 18.3753 38.8233 18.0914 39.1523 18.0471C39.7504 17.9666 38.6033 19.1346 38.2123 19.5943C37.198 20.7866 36.9708 20.9082 35.9601 21.9346C34.5636 23.3529 38.9483 19.2082 40.7583 18.38C40.8479 18.3391 41.0737 18.4279 41.0227 18.5122C40.8509 18.7961 40.5594 18.9967 40.2784 19.1732C40.0242 19.333 39.7415 19.5029 39.4412 19.5061C39.3308 19.5073 39.3026 19.2722 39.3678 19.183C39.6822 18.7524 40.542 18.3063 41.0422 18.2038C42.8117 17.8413 40.519 18.5573 41.4829 18.7326" stroke="white" stroke-width="2" stroke-linecap="round"/>
<path d="M37.9577 22.0815C36.4537 23.1582 40.0007 20.7533 38.4424 21.5184C37.5356 21.9637 36.6112 22.7464 35.6468 23.0509C34.7881 23.3221 37.1835 22.11 37.9773 21.6849C38.1634 21.5852 38.7399 21.343 38.5746 21.4744C37.7851 22.1022 36.9008 22.6074 36.0972 23.2174C35.1196 23.9594 36.0632 23.7633 36.6358 23.6678" stroke="black" stroke-width="2" stroke-linecap="round"/>
<path d="M36.812 17.4106C37.9795 16.8238 38.9297 16.0749 39.9553 17.0777C40.7282 17.8334 40.2952 18.5239 39.9798 19.4229C39.5866 20.5435 39.2253 21.5011 38.1291 22.0815C37.131 22.6099 35.5897 22.5107 34.785 23.3153" stroke="black" stroke-width="2" stroke-linecap="round"/>
<path d="M35.9307 22.7865C37.1433 22.0499 40.2617 19.1719 39.0202 19.8587C38.2102 20.3067 37.4503 21.1996 36.7337 21.7779C36.5867 21.8965 35.0445 23.169 36.528 21.822C37.3193 21.1036 38.1422 20.1907 39.0642 19.6334C39.8014 19.1879 37.8311 20.8387 37.1743 21.396C36.8245 21.6929 36.4723 21.9872 36.1168 22.2773C35.9402 22.4214 35.7834 22.5993 35.5782 22.6984C35.4637 22.7537 35.7411 22.5024 35.8328 22.4144C36.8778 21.412 37.9811 20.2972 39.2454 19.5698C39.9264 19.178 39.6213 19.662 39.3923 19.9615C38.5614 21.0479 37.4378 21.9675 36.4007 22.8453C35.1695 23.8873 35.6117 23.3257 36.4644 22.5515C37.3344 21.7616 39.989 19.4875 39.2699 20.4168C38.2167 21.7777 36.6848 22.8306 35.4215 23.9861C35.3015 24.0959 34.9323 24.4045 35.0788 24.3337C35.9341 23.9205 36.6082 23.2067 37.3702 22.6396C37.9104 22.2376 38.4455 21.8284 38.9957 21.4401C39.3108 21.2177 39.6048 20.9462 39.9651 20.8085C40.0875 20.7617 39.8542 21.051 39.7644 21.1463C39.0621 21.8915 36.6986 23.8621 37.4779 23.1978C38.1659 22.6113 39.092 21.8449 39.7986 21.3177C39.9728 21.1878 40.2663 20.7634 40.347 20.9652C40.4336 21.1816 40.0306 21.3085 39.8574 21.4646C39.4703 21.8133 39.0696 22.1466 38.6676 22.4781C38.5031 22.6138 36.1021 24.1817 36.0678 24.5589C36.0542 24.7083 36.3302 24.4126 36.4546 24.3288C37.2615 23.7855 38.2867 23.0192 39.0495 22.4781C39.4856 22.1687 39.9162 21.8507 40.3666 21.5625C41.2672 20.9862 40.5984 21.6078 40.2882 21.8661C39.0664 22.8832 37.6742 24.0343 36.2098 24.6862C36.1039 24.7333 35.8204 24.7845 35.8622 24.6764C36.2153 23.7623 37.1447 23.1928 37.8304 22.4928C38.2519 22.0624 38.687 21.6453 39.1034 21.21C39.3303 20.9727 39.6186 20.7721 39.7595 20.4756C39.8173 20.3537 39.4973 20.5517 39.3825 20.6225C38.8764 20.9341 36.6454 22.5385 36.391 22.718C35.8182 23.1218 35.2467 23.5278 34.6675 23.9224C34.1716 24.2603 32.8347 25.3706 33.1204 24.8429C33.2731 24.5607 33.5596 24.3747 33.7911 24.1525C34.9103 23.0788 36.0739 22.0522 37.2037 20.9897C37.7242 20.5002 38.254 20.0196 38.7509 19.5061C39.8033 18.4185 38.388 19.4742 38.1536 19.6432C37.5194 20.1004 36.9028 20.5815 36.2832 21.0582C35.6853 21.5183 35.096 21.9896 34.5011 22.4536C34.2506 22.6489 34.0484 22.9358 33.7471 23.0362C33.5182 23.1125 34.0897 22.6964 34.2661 22.5319C34.7684 22.0634 36.9937 20.0292 37.4485 19.6139C37.8153 19.2789 38.1886 18.9509 38.5501 18.6102C39.2131 17.9853 38.4474 18.5738 38.1487 18.7913C36.7138 19.8362 35.3405 20.952 33.9723 22.0815C33.233 22.6918 33.1561 22.7901 33.7764 22.1598C35.2466 20.6663 37.0162 19.1663 38.0899 17.3421C38.5119 16.6251 36.489 18.2573 36.391 18.4388C36.2959 18.6149 36.7216 18.2102 36.8659 18.0716C36.9548 17.9862 38.3706 16.6585 38.3592 16.1866C38.3484 15.7404 36.6736 16.9606 37.1352 16.4804C37.404 16.2007 37.7119 15.9606 37.9822 15.6823C38.2641 15.3921 38.6145 15.141 38.79 14.7765C38.8385 14.6759 38.5977 14.5905 38.4914 14.6247C37.9835 14.7883 37.5253 15.0794 37.0568 15.3347C36.3289 15.7314 34.1327 16.8477 34.9319 16.6272C36.1776 16.2836 37.389 15.2743 38.5354 14.6688C39.0989 14.3712 37.4236 15.2918 36.8708 15.6089C35.0079 16.6774 35.596 16.4125 37.0275 16.2258C37.4378 16.1722 37.86 16.0634 38.2662 16.1425C38.9624 16.2782 38.2243 16.8901 38.2221 17.0091C38.2149 17.3958 40.3446 16.173 40.5526 16.3629C40.6215 16.4257 37.705 17.8274 37.5415 18.1842C37.4355 18.4155 38.0255 18.0254 38.2613 17.9296C40.7058 16.9364 39.3009 17.4454 41.6004 16.4804C41.7013 16.438 42.0031 16.3193 41.9137 16.3824C-13.907 55.8653 113.734 -34.7514 39.3237 17.9737C38.1772 18.7861 41.0541 17.416 41.1206 17.4302C41.6808 17.5499 40.2864 18.2259 39.9553 18.6934C39.8302 18.87 39.8196 19.1058 39.7252 19.3005C39.244 20.2929 39.1446 20.151 38.085 21.0386C37.7571 21.3133 37.3893 21.5449 37.096 21.8563C37.045 21.9104 37.2961 21.9928 37.2331 22.0325C35.9941 22.8135 34.4786 23.3409 33.5072 24.4855C33.3933 24.6196 33.3776 24.8161 33.277 24.9604C33.051 25.2846 32.0905 25.8797 32.4839 25.8417C33.9006 25.7046 35.1228 24.2886 36.528 24.0007C36.7209 23.9613 36.2437 24.277 36.0776 24.3826C35.2766 24.892 32.882 26.2424 32.053 26.6838C31.9123 26.7587 31.4818 26.9614 31.6124 26.8699C32.9842 25.9084 34.4646 25.1119 35.9014 24.2505C36.6983 23.7726 39.1064 22.368 38.3004 22.8306C37.1983 23.4631 33.9978 25.4314 34.883 24.5197C35.6153 23.7655 38.2203 22.0923 37.2135 22.3948C36.6446 22.5658 36.1228 22.8669 35.5684 23.0803C35.1301 23.249 34.7021 23.6035 34.2367 23.5405C34.0034 23.5089 34.4498 23.1063 34.6284 22.953C35.3345 22.3468 36.1104 21.8268 36.8659 21.2834C37.7851 20.6222 38.7396 20.0106 39.6518 19.3397C40.1603 18.9656 40.8193 18.702 41.1255 18.1499C41.2593 17.9086 40.567 18.1128 40.298 18.1744C39.527 18.351 38.798 18.6863 38.0263 18.8599C37.5589 18.965 36.8655 19.4032 36.5966 19.0067C36.1284 18.3165 41.2606 15.6946 41.8158 15.413C43.7546 14.43 41.4722 15.5212 41.3948 15.5599" stroke="white" stroke-width="2" stroke-linecap="round"/>
<path d="M37.0764 17.0581C37.8985 16.1475 39.3281 14.7031 40.4058 16.0887C41.0305 16.892 40.1092 18.1675 39.5489 18.7277C38.2431 20.0335 36.5178 20.8921 35.0494 21.9934" stroke="black" stroke-width="2" stroke-linecap="round"/>
<path d="M33.9919 20.3189C33.5945 18.9967 32.0654 14.9288 34.364 14.2674C34.7979 14.1425 35.254 14.5776 35.5244 14.8598C36.0158 15.3726 36.2826 16.4674 36.4155 17.1462C36.5507 17.8373 36.5672 18.5176 36.2637 19.1732C36.2198 19.2679 36.0758 19.8187 35.9209 19.7069C35.4568 19.3717 35.2234 18.4134 35.069 17.9198C34.8707 17.2858 34.7599 16.552 34.364 16.0006C34.061 15.5785 34.3895 16.6172 34.4032 16.6566C34.7133 17.5499 35.0344 18.4335 35.0494 19.3887C35.0567 19.8468 34.8953 20.7451 35.1523 21.1561C35.2498 21.3123 36.1889 20.0062 36.2833 19.8979C36.8439 19.2541 37.5319 18.7381 38.1144 18.1157C38.4472 17.76 38.9384 16.9424 39.4216 16.7937C39.5728 16.7472 39.739 16.7563 39.8084 16.6175" stroke="black" stroke-width="2" stroke-linecap="round"/>
<path d="M33.5525 63.689C33.3384 63.3713 32.7113 62.4182 32.9774 62.6938C33.2577 62.9841 33.8743 64.0269 33.7073 63.6595C33.4127 63.0116 33.0666 62.0725 33.4271 61.3816C33.7486 60.7654 33.5144 60.9472 33.523 61.4553C33.5306 61.9048 33.5849 63.0099 33.9432 63.3425C33.9569 63.3553 34.7731 61.7783 34.7984 61.7354C35.0625 61.2874 35.8997 60.0246 35.7936 60.5338C35.6398 61.2719 34.4422 63.229 34.8057 62.5685C35.9516 60.4867 37.4137 58.6311 38.9341 56.8182C41.4351 53.8362 33.0377 53.5452 31.6947 53.3386" stroke="black" stroke-width="2" stroke-linecap="round"/>
</svg>
