<svg width="68" height="68" viewBox="0 0 68 68" fill="none" xmlns="http://www.w3.org/2000/svg">
<path d="M36.9465 31.8163L35.9642 27.7408L39.5066 27.3486L40.9341 30.6471L40.6739 33.9961L38.0957 35.6005L34.442 36.187L30.7146 34.0072L31.0448 28.3651L31.305 25.0162L33.6049 23.8974M33.6049 23.8974L38.58 23.176L43.5499 26.0823L44.4765 30.2549L45.7538 35.0216M33.6049 23.8974L29.3378 23.8658L27.8351 26.4882L27.2978 32.0092L30.4544 37.3562L35.4242 40.2625L39.4118 39.0932M45.7538 35.0216L43.5832 38.8095L39.4118 39.0932M45.7538 35.0216L50.6888 33.8878M39.4118 39.0932L36.787 42.2264M50.6888 33.8878L52.2471 31.1683L47.519 24.9454M50.6888 33.8878L51.6555 38.4729M27.7847 22.9576L26.2427 20.8239M26.2427 20.8239L24.7006 18.6903L26.9293 18.1782M26.2427 20.8239L21.7068 28.7396L23.1199 34.2341M36.787 42.2264L34.1622 45.3596L24.5331 39.7287L23.1199 34.2341M36.787 42.2264L40.4109 44.3456L44.1214 45.3485M44.1214 45.3485L49.4849 42.2607L51.6555 38.4729M44.1214 45.3485L43.6205 46.2226L38.4073 47.8421L34.5322 50.5035L32.0473 49.0504M51.6555 38.4729L54.0303 41.8067M23.1199 34.2341L18.8242 38.5946L24.5925 44.6909L32.0473 49.0504M26.9293 18.1782L29.158 17.6661L36.5923 15.7894L46.5733 23.7009L47.519 24.9454M26.9293 18.1782L24.4716 15.8333M32.0473 49.0504L29.6082 50.412M24.4716 15.8333L22.0139 13.4884L17.9596 15.9801L13.4237 23.8958L13.8687 33.4923L15.7451 41.0732L20.025 47.5958L27.1692 51.7736L29.6082 50.412M24.4716 15.8333L26.6422 12.0454L34.4077 11.3998L38.8741 11.8073L48.7995 19.8159L48.1592 22.3807M47.519 24.9454L48.1592 22.3807M29.6082 50.412L33.0913 53.2593M54.0303 41.8067L54.5284 47.9332L48.4648 51.5192L42.1941 54.984L36.5744 56.1066L33.0913 53.2593M54.0303 41.8067L57.8678 42.1057L58.3506 38.3683L59.6329 32.0295L53.9574 25.7713L48.1592 22.3807M12.5888 25.3526L10.3626 29.2376L9.26883 35.7299C10.4469 39.1419 13.0501 46.1622 14.0378 46.9473C15.0256 47.7324 19.4572 51.2403 21.5495 52.8961L29.6722 56.09L33.0913 53.2593M67 34C67 52.2254 52.2254 67 34 67C15.7746 67 1 52.2254 1 34C1 15.7746 15.7746 1 34 1C52.2254 1 67 15.7746 67 34Z" stroke="black"/>
</svg>
